<?xml version='1.0' encoding='ASCII' standalone='yes'?>
<svg xmlns:xlink="http://www.w3.org/1999/xlink" xmlns="http://www.w3.org/2000/svg" width="786.364518pt" height="589.773388pt" viewBox="0 0 393.182259 294.886694" version="1.1">
 <metadata>
  <rdf:RDF xmlns:dc="http://purl.org/dc/elements/1.1/" xmlns:cc="http://creativecommons.org/ns#" xmlns:rdf="http://www.w3.org/1999/02/22-rdf-syntax-ns#">
   <cc:Work>
    <dc:type rdf:resource="http://purl.org/dc/dcmitype/StillImage"/>
    <dc:date>2024-04-03T18:10:36.541170</dc:date>
    <dc:format>image/svg+xml</dc:format>
    <dc:creator>
     <cc:Agent>
      <dc:title>Matplotlib v3.8.2, https://matplotlib.org/</dc:title>
     </cc:Agent>
    </dc:creator>
   </cc:Work>
  </rdf:RDF>
 </metadata>
 <defs>
  <style type="text/css">*{stroke-linejoin: round; stroke-linecap: butt}</style>
 </defs>
 <g id="figure_1">
  <g id="patch_1">
   <path d="M 0 294.886694  L 393.182259 294.886694  L 393.182259 0  L 0 0  z " style="fill: #ffffff"/>
  </g>
  <g id="axes_1">
   <g id="patch_2">
    <path d="M 37.694928 259.622079  L 390.182019 259.622079  L 390.182019 7.12524  L 37.694928 7.12524  z " style="fill: #ffffff"/>
   </g>
   <g id="matplotlib.axis_1">
    <g id="xtick_1">
     <g id="line2d_1">
      <defs>
       <path id="maba504bea8" d="M 0 0  L 0 3.5  " style="stroke: #000000; stroke-width: 0.8"/>
      </defs>
      <g>
       <use xlink:href="#maba504bea8" x="79.163997" y="259.622079" style="stroke: #000000; stroke-width: 0.8"/>
      </g>
     </g>
     <g id="text_1">
      <!-- 50 -->
      <g transform="translate(72.981653 274.872079) scale(0.11 -0.11)">
       <defs>
        <path id="Roboto-Regular-35" d="M 1109 2166  L 647 2284  L 875 4550  L 3209 4550  L 3209 4016  L 1366 4016  L 1228 2778  Q 1572 2975 1988 2975  Q 2616 2975 2980 2561  Q 3344 2147 3344 1450  Q 3344 797 2987 367  Q 2631 -63 1903 -63  Q 1350 -63 947 248  Q 544 559 481 1197  L 1031 1197  Q 1141 413 1903 413  Q 2313 413 2538 691  Q 2763 969 2763 1444  Q 2763 1872 2527 2164  Q 2291 2456 1853 2456  Q 1563 2456 1413 2378  Q 1263 2300 1109 2166  z " transform="scale(0.015625)"/>
        <path id="Roboto-Regular-30" d="M 3234 1944  Q 3234 825 2848 381  Q 2463 -63 1800 -63  Q 1156 -63 764 368  Q 372 800 359 1872  L 359 2638  Q 359 3753 750 4183  Q 1141 4613 1794 4613  Q 2447 4613 2834 4195  Q 3222 3778 3234 2709  L 3234 1944  z M 2653 2734  Q 2653 3503 2434 3822  Q 2216 4141 1794 4141  Q 1388 4141 1167 3831  Q 947 3522 941 2778  L 941 1850  Q 941 1088 1164 750  Q 1388 413 1800 413  Q 2222 413 2436 745  Q 2650 1078 2653 1825  L 2653 2734  z " transform="scale(0.015625)"/>
       </defs>
       <use xlink:href="#Roboto-Regular-35"/>
       <use xlink:href="#Roboto-Regular-30" x="56.201172"/>
      </g>
     </g>
    </g>
    <g id="xtick_2">
     <g id="line2d_2">
      <g>
       <use xlink:href="#maba504bea8" x="148.279113" y="259.622079" style="stroke: #000000; stroke-width: 0.8"/>
      </g>
     </g>
     <g id="text_2">
      <!-- 100 -->
      <g transform="translate(139.005598 274.872079) scale(0.11 -0.11)">
       <defs>
        <path id="Roboto-Regular-31" d="M 2278 4575  L 2278 0  L 1700 0  L 1700 3853  L 534 3428  L 534 3950  L 2188 4575  L 2278 4575  z " transform="scale(0.015625)"/>
       </defs>
       <use xlink:href="#Roboto-Regular-31"/>
       <use xlink:href="#Roboto-Regular-30" x="56.201172"/>
       <use xlink:href="#Roboto-Regular-30" x="112.402344"/>
      </g>
     </g>
    </g>
    <g id="xtick_3">
     <g id="line2d_3">
      <g>
       <use xlink:href="#maba504bea8" x="217.394229" y="259.622079" style="stroke: #000000; stroke-width: 0.8"/>
      </g>
     </g>
     <g id="text_3">
      <!-- 150 -->
      <g transform="translate(208.120714 274.872079) scale(0.11 -0.11)">
       <use xlink:href="#Roboto-Regular-31"/>
       <use xlink:href="#Roboto-Regular-35" x="56.201172"/>
       <use xlink:href="#Roboto-Regular-30" x="112.402344"/>
      </g>
     </g>
    </g>
    <g id="xtick_4">
     <g id="line2d_4">
      <g>
       <use xlink:href="#maba504bea8" x="286.509345" y="259.622079" style="stroke: #000000; stroke-width: 0.8"/>
      </g>
     </g>
     <g id="text_4">
      <!-- 200 -->
      <g transform="translate(277.23583 274.872079) scale(0.11 -0.11)">
       <defs>
        <path id="Roboto-Regular-32" d="M 3359 475  L 3359 0  L 381 0  L 381 416  L 1925 2134  Q 2306 2566 2439 2819  Q 2572 3072 2572 3328  Q 2572 3663 2364 3900  Q 2156 4138 1778 4138  Q 1322 4138 1097 3878  Q 872 3619 872 3213  L 294 3213  Q 294 3788 672 4200  Q 1050 4613 1778 4613  Q 2422 4613 2786 4278  Q 3150 3944 3150 3397  Q 3150 2997 2903 2592  Q 2656 2188 2297 1797  L 1078 475  L 3359 475  z " transform="scale(0.015625)"/>
       </defs>
       <use xlink:href="#Roboto-Regular-32"/>
       <use xlink:href="#Roboto-Regular-30" x="56.201172"/>
       <use xlink:href="#Roboto-Regular-30" x="112.402344"/>
      </g>
     </g>
    </g>
    <g id="xtick_5">
     <g id="line2d_5">
      <g>
       <use xlink:href="#maba504bea8" x="355.624461" y="259.622079" style="stroke: #000000; stroke-width: 0.8"/>
      </g>
     </g>
     <g id="text_5">
      <!-- 250 -->
      <g transform="translate(346.350946 274.872079) scale(0.11 -0.11)">
       <use xlink:href="#Roboto-Regular-32"/>
       <use xlink:href="#Roboto-Regular-35" x="56.201172"/>
       <use xlink:href="#Roboto-Regular-30" x="112.402344"/>
      </g>
     </g>
    </g>
    <g id="text_6">
     <!-- Time, $t$ [s] -->
     <g transform="translate(190.453473 289.652079) scale(0.11 -0.11)">
      <defs>
       <path id="Roboto-Regular-54" d="M 156 4056  L 156 4550  L 3672 4550  L 3672 4056  L 2209 4056  L 2209 0  L 1616 0  L 1616 4056  L 156 4056  z " transform="scale(0.015625)"/>
       <path id="Roboto-Regular-69" d="M 444 4278  Q 444 4419 530 4516  Q 616 4613 784 4613  Q 950 4613 1039 4516  Q 1128 4419 1128 4278  Q 1128 4144 1039 4048  Q 950 3953 784 3953  Q 616 3953 530 4048  Q 444 4144 444 4278  z M 1069 3381  L 1069 0  L 488 0  L 488 3381  L 1069 3381  z " transform="scale(0.015625)"/>
       <path id="Roboto-Regular-6d" d="M 1794 2956  Q 1225 2956 1016 2478  L 1016 0  L 434 0  L 434 3381  L 984 3381  L 1000 3013  Q 1366 3444 2000 3444  Q 2325 3444 2579 3314  Q 2834 3184 2969 2900  Q 3138 3144 3408 3294  Q 3678 3444 4044 3444  Q 4588 3444 4883 3153  Q 5178 2863 5178 2222  L 5178 0  L 4597 0  L 4597 2228  Q 4597 2653 4401 2804  Q 4206 2956 3875 2956  Q 3525 2956 3325 2748  Q 3125 2541 3094 2244  L 3094 0  L 2516 0  L 2516 2225  Q 2516 2622 2319 2789  Q 2122 2956 1794 2956  z " transform="scale(0.015625)"/>
       <path id="Roboto-Regular-65" d="M 3116 591  Q 2950 341 2647 139  Q 2344 -63 1844 -63  Q 1138 -63 714 396  Q 291 856 291 1572  L 291 1703  Q 291 2256 502 2645  Q 713 3034 1050 3239  Q 1388 3444 1769 3444  Q 2494 3444 2826 2970  Q 3159 2497 3159 1788  L 3159 1528  L 872 1528  Q 884 1063 1148 736  Q 1413 409 1875 409  Q 2181 409 2393 534  Q 2606 659 2766 869  L 3116 591  z M 1769 2969  Q 1425 2969 1187 2719  Q 950 2469 891 2000  L 2581 2000  L 2581 2044  Q 2559 2381 2386 2675  Q 2213 2969 1769 2969  z " transform="scale(0.015625)"/>
       <path id="Roboto-Regular-2c" d="M 966 688  L 966 222  Q 966 -63 822 -380  Q 678 -697 419 -909  L 91 -681  Q 391 -263 400 175  L 400 688  L 966 688  z " transform="scale(0.015625)"/>
       <path id="Roboto-Regular-20" transform="scale(0.015625)"/>
       <path id="STIXGeneral-Italic-74" d="M 1894 2739  L 1862 2534  L 1325 2534  L 768 435  Q 755 384 755 346  Q 755 243 851 243  Q 928 243 1030 342  Q 1133 442 1370 749  L 1453 704  Q 1158 256 969 93  Q 781 -70 538 -70  Q 243 -70 243 166  Q 243 230 346 640  L 845 2534  L 365 2534  L 358 2573  Q 358 2688 570 2733  Q 730 2771 992 2979  Q 1254 3187 1421 3437  Q 1459 3494 1510 3494  Q 1568 3494 1568 3443  Q 1568 3411 1562 3398  L 1382 2739  L 1894 2739  z " transform="scale(0.015625)"/>
       <path id="Roboto-Regular-5b" d="M 1634 5200  L 1634 4725  L 1038 4725  L 1038 -500  L 1634 -500  L 1634 -975  L 459 -975  L 459 5200  L 1634 5200  z " transform="scale(0.015625)"/>
       <path id="Roboto-Regular-73" d="M 2409 897  Q 2409 1081 2273 1229  Q 2138 1378 1647 1478  Q 1081 1594 747 1814  Q 413 2034 413 2456  Q 413 2856 755 3150  Q 1097 3444 1666 3444  Q 2272 3444 2612 3134  Q 2953 2825 2953 2388  L 2375 2388  Q 2375 2597 2190 2783  Q 2006 2969 1666 2969  Q 1306 2969 1150 2812  Q 994 2656 994 2472  Q 994 2288 1139 2173  Q 1284 2059 1756 1953  Q 2378 1813 2683 1584  Q 2988 1356 2988 941  Q 2988 494 2630 215  Q 2272 -63 1681 -63  Q 1009 -63 653 281  Q 297 625 297 1044  L 878 1044  Q 897 684 1155 548  Q 1413 413 1681 413  Q 2034 413 2221 550  Q 2409 688 2409 897  z " transform="scale(0.015625)"/>
       <path id="Roboto-Regular-5d" d="M 31 4725  L 31 5200  L 1213 5200  L 1213 -975  L 31 -975  L 31 -500  L 631 -500  L 631 4725  L 31 4725  z " transform="scale(0.015625)"/>
      </defs>
      <use xlink:href="#Roboto-Regular-54" transform="translate(0 0.75)"/>
      <use xlink:href="#Roboto-Regular-69" transform="translate(59.667969 0.75)"/>
      <use xlink:href="#Roboto-Regular-6d" transform="translate(83.984375 0.75)"/>
      <use xlink:href="#Roboto-Regular-65" transform="translate(171.679688 0.75)"/>
      <use xlink:href="#Roboto-Regular-2c" transform="translate(224.707031 0.75)"/>
      <use xlink:href="#Roboto-Regular-20" transform="translate(244.384766 0.75)"/>
      <use xlink:href="#STIXGeneral-Italic-74" transform="translate(269.189453 0.75)"/>
      <use xlink:href="#Roboto-Regular-20" transform="translate(296.989441 0.75)"/>
      <use xlink:href="#Roboto-Regular-5b" transform="translate(321.794128 0.75)"/>
      <use xlink:href="#Roboto-Regular-73" transform="translate(348.3078 0.75)"/>
      <use xlink:href="#Roboto-Regular-5d" transform="translate(399.919128 0.75)"/>
     </g>
    </g>
   </g>
   <g id="matplotlib.axis_2">
    <g id="ytick_1">
     <g id="line2d_6">
      <defs>
       <path id="m8befa72937" d="M 0 0  L -3.5 0  " style="stroke: #000000; stroke-width: 0.8"/>
      </defs>
      <g>
       <use xlink:href="#m8befa72937" x="37.694928" y="7.12524" style="stroke: #000000; stroke-width: 0.8"/>
      </g>
     </g>
     <g id="text_7">
      <!-- 0 -->
      <g transform="translate(24.512584 11.25024) scale(0.11 -0.11)">
       <use xlink:href="#Roboto-Regular-30"/>
      </g>
     </g>
    </g>
    <g id="ytick_2">
     <g id="line2d_7">
      <g>
       <use xlink:href="#m8befa72937" x="37.694928" y="55.682325" style="stroke: #000000; stroke-width: 0.8"/>
      </g>
     </g>
     <g id="text_8">
      <!-- 5 -->
      <g transform="translate(24.512584 59.807325) scale(0.11 -0.11)">
       <use xlink:href="#Roboto-Regular-35"/>
      </g>
     </g>
    </g>
    <g id="ytick_3">
     <g id="line2d_8">
      <g>
       <use xlink:href="#m8befa72937" x="37.694928" y="104.239409" style="stroke: #000000; stroke-width: 0.8"/>
      </g>
     </g>
     <g id="text_9">
      <!-- 10 -->
      <g transform="translate(18.33024 108.364409) scale(0.11 -0.11)">
       <use xlink:href="#Roboto-Regular-31"/>
       <use xlink:href="#Roboto-Regular-30" x="56.201172"/>
      </g>
     </g>
    </g>
    <g id="ytick_4">
     <g id="line2d_9">
      <g>
       <use xlink:href="#m8befa72937" x="37.694928" y="152.796494" style="stroke: #000000; stroke-width: 0.8"/>
      </g>
     </g>
     <g id="text_10">
      <!-- 15 -->
      <g transform="translate(18.33024 156.921494) scale(0.11 -0.11)">
       <use xlink:href="#Roboto-Regular-31"/>
       <use xlink:href="#Roboto-Regular-35" x="56.201172"/>
      </g>
     </g>
    </g>
    <g id="ytick_5">
     <g id="line2d_10">
      <g>
       <use xlink:href="#m8befa72937" x="37.694928" y="201.353578" style="stroke: #000000; stroke-width: 0.8"/>
      </g>
     </g>
     <g id="text_11">
      <!-- 20 -->
      <g transform="translate(18.33024 205.478578) scale(0.11 -0.11)">
       <use xlink:href="#Roboto-Regular-32"/>
       <use xlink:href="#Roboto-Regular-30" x="56.201172"/>
      </g>
     </g>
    </g>
    <g id="ytick_6">
     <g id="line2d_11">
      <g>
       <use xlink:href="#m8befa72937" x="37.694928" y="249.910663" style="stroke: #000000; stroke-width: 0.8"/>
      </g>
     </g>
     <g id="text_12">
      <!-- 25 -->
      <g transform="translate(18.33024 254.035663) scale(0.11 -0.11)">
       <use xlink:href="#Roboto-Regular-32"/>
       <use xlink:href="#Roboto-Regular-35" x="56.201172"/>
      </g>
     </g>
    </g>
    <g id="text_13">
     <!-- Front depth, $d$ [cm] -->
     <g transform="translate(12.02024 178.74866) rotate(-90) scale(0.11 -0.11)">
      <defs>
       <path id="Roboto-Regular-46" d="M 528 0  L 528 4550  L 3347 4550  L 3347 4056  L 1131 4056  L 1131 2503  L 3038 2503  L 3038 2009  L 1131 2009  L 1131 0  L 528 0  z " transform="scale(0.015625)"/>
       <path id="Roboto-Regular-72" d="M 1791 2888  Q 1225 2888 1019 2400  L 1019 0  L 441 0  L 441 3381  L 1003 3381  L 1016 2994  Q 1294 3444 1819 3444  Q 1981 3444 2075 3400  L 2072 2863  Q 1944 2888 1791 2888  z " transform="scale(0.015625)"/>
       <path id="Roboto-Regular-6f" d="M 288 1725  Q 288 2459 700 2951  Q 1113 3444 1822 3444  Q 2531 3444 2943 2961  Q 3356 2478 3366 1756  L 3366 1653  Q 3366 919 2952 428  Q 2538 -63 1828 -63  Q 1116 -63 702 428  Q 288 919 288 1653  L 288 1725  z M 866 1653  Q 866 1150 1105 781  Q 1344 413 1828 413  Q 2300 413 2540 777  Q 2781 1141 2784 1644  L 2784 1725  Q 2784 2222 2543 2595  Q 2303 2969 1822 2969  Q 1344 2969 1105 2595  Q 866 2222 866 1725  L 866 1653  z " transform="scale(0.015625)"/>
       <path id="Roboto-Regular-6e" d="M 1844 2956  Q 1566 2956 1353 2806  Q 1141 2656 1019 2416  L 1019 0  L 441 0  L 441 3381  L 988 3381  L 1006 2959  Q 1391 3444 2016 3444  Q 2513 3444 2805 3166  Q 3097 2888 3100 2231  L 3100 0  L 2519 0  L 2519 2222  Q 2519 2619 2345 2787  Q 2172 2956 1844 2956  z " transform="scale(0.015625)"/>
       <path id="Roboto-Regular-74" d="M 1872 0  Q 1675 -63 1425 -63  Q 1103 -63 875 134  Q 647 331 647 841  L 647 2938  L 28 2938  L 28 3381  L 647 3381  L 647 4203  L 1225 4203  L 1225 3381  L 1856 3381  L 1856 2938  L 1225 2938  L 1225 838  Q 1225 578 1337 506  Q 1450 434 1597 434  Q 1706 434 1869 472  L 1872 0  z " transform="scale(0.015625)"/>
       <path id="Roboto-Regular-64" d="M 2622 0  L 2594 363  Q 2247 -63 1628 -63  Q 1034 -63 668 418  Q 303 900 297 1628  L 297 1719  Q 297 2494 664 2969  Q 1031 3444 1634 3444  Q 2231 3444 2572 3044  L 2572 4800  L 3153 4800  L 3153 0  L 2622 0  z M 878 1653  Q 878 1150 1090 789  Q 1303 428 1772 428  Q 2309 428 2572 919  L 2572 2475  Q 2313 2956 1778 2956  Q 1306 2956 1092 2589  Q 878 2222 878 1719  L 878 1653  z " transform="scale(0.015625)"/>
       <path id="Roboto-Regular-70" d="M 1984 -63  Q 1375 -63 1019 328  L 1019 -1300  L 438 -1300  L 438 3381  L 969 3381  L 997 3009  Q 1353 3444 1975 3444  Q 2616 3444 2956 2969  Q 3297 2494 3297 1719  L 3297 1653  Q 3297 913 2955 425  Q 2613 -63 1984 -63  z M 1806 2956  Q 1281 2956 1019 2491  L 1019 872  Q 1284 413 1813 413  Q 2281 413 2498 781  Q 2716 1150 2716 1653  L 2716 1719  Q 2716 2222 2498 2589  Q 2281 2956 1806 2956  z " transform="scale(0.015625)"/>
       <path id="Roboto-Regular-68" d="M 1844 2956  Q 1566 2956 1353 2806  Q 1141 2656 1019 2416  L 1019 0  L 441 0  L 441 4800  L 1019 4800  L 1019 2978  Q 1403 3444 2016 3444  Q 2513 3444 2805 3166  Q 3097 2888 3100 2231  L 3100 0  L 2519 0  L 2519 2222  Q 2519 2619 2345 2787  Q 2172 2956 1844 2956  z " transform="scale(0.015625)"/>
       <path id="STIXGeneral-Italic-64" d="M 3334 4371  L 3373 4333  L 3123 3360  L 2739 1958  Q 2323 429 2323 384  Q 2323 256 2438 256  Q 2522 256 2614 336  Q 2707 416 2963 710  L 3040 646  Q 2547 -83 2099 -83  Q 1978 -83 1907 -6  Q 1837 70 1837 205  Q 1837 397 1920 774  Q 1645 307 1379 118  Q 1114 -70 781 -70  Q 461 -70 278 125  Q 96 320 96 678  Q 96 1440 713 2131  Q 1331 2822 1965 2822  Q 2163 2822 2256 2732  Q 2349 2643 2381 2451  L 2387 2451  L 2675 3494  Q 2765 3808 2765 3949  Q 2765 4051 2694 4076  Q 2624 4102 2355 4115  L 2355 4224  Q 2848 4269 3334 4371  z M 2278 2310  Q 2278 2477 2185 2576  Q 2093 2675 1978 2675  Q 1677 2675 1395 2381  Q 1075 2042 864 1571  Q 653 1101 653 704  Q 653 486 752 361  Q 851 237 1024 237  Q 1312 237 1606 550  Q 1901 864 2089 1350  Q 2278 1837 2278 2310  z " transform="scale(0.015625)"/>
       <path id="Roboto-Regular-63" d="M 1794 413  Q 2103 413 2336 597  Q 2569 781 2591 1069  L 3141 1069  Q 3119 616 2725 276  Q 2331 -63 1794 -63  Q 1031 -63 661 440  Q 291 944 291 1625  L 291 1756  Q 291 2438 661 2941  Q 1031 3444 1794 3444  Q 2388 3444 2753 3092  Q 3119 2741 3141 2219  L 2591 2219  Q 2569 2531 2355 2750  Q 2141 2969 1794 2969  Q 1438 2969 1236 2787  Q 1034 2606 951 2328  Q 869 2050 869 1756  L 869 1625  Q 869 1328 950 1050  Q 1031 772 1232 592  Q 1434 413 1794 413  z " transform="scale(0.015625)"/>
      </defs>
      <use xlink:href="#Roboto-Regular-46" transform="translate(0 0.75)"/>
      <use xlink:href="#Roboto-Regular-72" transform="translate(55.273438 0.75)"/>
      <use xlink:href="#Roboto-Regular-6f" transform="translate(89.160156 0.75)"/>
      <use xlink:href="#Roboto-Regular-6e" transform="translate(146.191406 0.75)"/>
      <use xlink:href="#Roboto-Regular-74" transform="translate(201.416016 0.75)"/>
      <use xlink:href="#Roboto-Regular-20" transform="translate(234.130859 0.75)"/>
      <use xlink:href="#Roboto-Regular-64" transform="translate(258.935547 0.75)"/>
      <use xlink:href="#Roboto-Regular-65" transform="translate(315.332031 0.75)"/>
      <use xlink:href="#Roboto-Regular-70" transform="translate(368.359375 0.75)"/>
      <use xlink:href="#Roboto-Regular-74" transform="translate(424.511719 0.75)"/>
      <use xlink:href="#Roboto-Regular-68" transform="translate(457.226562 0.75)"/>
      <use xlink:href="#Roboto-Regular-2c" transform="translate(512.304688 0.75)"/>
      <use xlink:href="#Roboto-Regular-20" transform="translate(531.982422 0.75)"/>
      <use xlink:href="#STIXGeneral-Italic-64" transform="translate(556.787109 0.75)"/>
      <use xlink:href="#Roboto-Regular-20" transform="translate(606.787094 0.75)"/>
      <use xlink:href="#Roboto-Regular-5b" transform="translate(631.591782 0.75)"/>
      <use xlink:href="#Roboto-Regular-63" transform="translate(658.105453 0.75)"/>
      <use xlink:href="#Roboto-Regular-6d" transform="translate(710.449203 0.75)"/>
      <use xlink:href="#Roboto-Regular-5d" transform="translate(798.144516 0.75)"/>
     </g>
    </g>
   </g>
   <g id="line2d_12">
    <path d="M 0 0  " clip-path="url(#p352a154e23)" style="fill: none; stroke: #440154; stroke-width: 1.5; stroke-linecap: square"/>
   </g>
   <g id="line2d_13">
    <path d="M 79.163997 31.625569  L 86.075509 32.73922  L 86.075509 34.966523  L 92.98702 36.080174  L 92.98702 39.421128  L 99.898532 40.534779  L 99.898532 47.216687  L 113.721555 49.44399  L 113.721555 50.557641  L 120.633067 51.671292  L 120.633067 52.784944  L 127.544578 53.898595  L 127.544578 60.580503  L 134.45609 61.694154  L 134.45609 65.035108  L 141.367602 66.148759  L 141.367602 68.376062  L 148.279113 69.489713  L 148.279113 76.171621  L 155.190625 77.285272  L 155.190625 80.626226  L 162.102136 81.739878  L 162.102136 83.96718  L 169.013648 85.080831  L 169.013648 88.421785  L 175.92516 89.535437  L 169.013648 90.649088  L 169.013648 92.876391  L 175.92516 93.990042  L 175.92516 96.217345  L 182.836671 97.330996  L 182.836671 99.558298  L 196.659694 101.785601  L 196.659694 106.240206  L 203.571206 107.353858  L 203.571206 110.694812  L 196.659694 111.808463  L 196.659694 116.263068  L 203.571206 117.376719  L 203.571206 118.490371  L 210.482718 119.604022  L 210.482718 122.944976  L 217.394229 124.058627  L 217.394229 125.172278  L 231.217252 127.399581  L 231.217252 137.422443  L 238.128764 138.536094  L 238.128764 148.558956  L 251.951787 150.786259  L 251.951787 151.89991  L 258.863299 153.013561  L 258.863299 157.468166  L 265.77481 158.581818  L 265.77481 159.695469  L 272.686322 160.80912  L 272.686322 163.036423  L 279.597834 164.150074  L 279.597834 165.263726  L 286.509345 166.377377  L 286.509345 169.718331  L 293.420857 170.831982  L 293.420857 174.172936  L 286.509345 175.286587  L 286.509345 179.741193  L 279.597834 180.854844  L 279.597834 181.968495  L 286.509345 183.082146  L 286.509345 184.195798  L 307.24388 187.536752  L 307.24388 190.877706  L 314.155392 191.991357  L 314.155392 193.105008  L 321.066903 194.218659  L 321.066903 203.12787  L 307.24388 205.355173  L 307.24388 207.582475  L 314.155392 208.696126  L 314.155392 209.809778  L 348.71295 215.378034  L 348.71295 220.946291  L 334.889926 223.173593  L 334.889926 232.082804  L 327.978415 233.196455  L 327.978415 242.105666  L 321.066903 243.219317  L 307.24388 244.332968  L 300.332368 245.44662  L 300.332368 247.673922  L 321.066903 248.787574  L 327.978415 249.901225  L 341.801438 251.014876  L 362.535973 252.128527  L 362.535973 252.128527  " clip-path="url(#p352a154e23)" style="fill: none; stroke: #482878; stroke-width: 1.5; stroke-linecap: square"/>
   </g>
   <g id="line2d_14">
    <path d="M 44.606439 18.261753  L 44.606439 21.602707  L 51.517951 22.716358  L 51.517951 24.943661  L 58.429462 26.057312  L 58.429462 28.284615  L 65.340974 29.398266  L 65.340974 31.625569  L 72.252486 32.73922  L 72.252486 37.193825  L 79.163997 38.307477  L 79.163997 40.534779  L 86.075509 41.648431  L 86.075509 42.762082  L 92.98702 43.875733  L 92.98702 44.989384  L 99.898532 46.103036  L 99.898532 49.44399  L 106.810044 50.557641  L 106.810044 53.898595  L 113.721555 55.012246  L 113.721555 56.125897  L 120.633067 57.239549  L 120.633067 60.580503  L 127.544578 61.694154  L 127.544578 66.148759  L 134.45609 67.262411  L 134.45609 68.376062  L 141.367602 69.489713  L 141.367602 75.05797  L 148.279113 76.171621  L 148.279113 77.285272  L 155.190625 78.398924  L 155.190625 82.853529  L 162.102136 83.96718  L 162.102136 85.080831  L 169.013648 86.194483  L 169.013648 88.421785  L 175.92516 89.535437  L 175.92516 95.103693  L 169.013648 96.217345  L 169.013648 100.67195  L 175.92516 101.785601  L 175.92516 102.899252  L 182.836671 104.012904  L 182.836671 106.240206  L 189.748183 107.353858  L 189.748183 117.376719  L 196.659694 118.490371  L 196.659694 120.717673  L 203.571206 121.831325  L 203.571206 122.944976  L 210.482718 124.058627  L 210.482718 126.28593  L 217.394229 127.399581  L 217.394229 129.626884  L 224.305741 130.740535  L 224.305741 131.854186  L 231.217252 132.967838  L 231.217252 142.990699  L 238.128764 144.104351  L 238.128764 146.331653  L 245.040276 147.445305  L 245.040276 150.786259  L 238.128764 151.89991  L 238.128764 155.240864  L 258.863299 158.581818  L 258.863299 160.80912  L 251.951787 161.922772  L 251.951787 169.718331  L 258.863299 170.831982  L 258.863299 173.059285  L 265.77481 174.172936  L 265.77481 179.741193  L 272.686322 180.854844  L 272.686322 181.968495  L 279.597834 183.082146  L 279.597834 191.991357  L 286.509345 193.105008  L 286.509345 205.355173  L 293.420857 206.468824  L 293.420857 207.582475  L 300.332368 208.696126  L 314.155392 209.809778  L 314.155392 212.03708  L 300.332368 214.264383  L 300.332368 216.491686  L 314.155392 218.718988  L 314.155392 223.173593  L 307.24388 224.287245  L 307.24388 225.400896  L 314.155392 226.514547  L 314.155392 227.628199  L 327.978415 228.74185  L 327.978415 229.855501  L 334.889926 230.969153  L 334.889926 237.65106  L 321.066903 239.878363  L 321.066903 242.105666  L 341.801438 245.44662  L 341.801438 246.560271  L 314.155392 251.014876  L 314.155392 253.242179  L 314.155392 253.242179  " clip-path="url(#p352a154e23)" style="fill: none; stroke: #3e4989; stroke-width: 1.5; stroke-linecap: square"/>
   </g>
   <g id="line2d_15">
    <path d="M 113.721555 44.989384  L 113.721555 47.216687  L 120.633067 48.330338  L 120.633067 49.44399  L 127.544578 50.557641  L 127.544578 53.898595  L 134.45609 55.012246  L 134.45609 59.466851  L 141.367602 60.580503  L 141.367602 63.921457  L 148.279113 65.035108  L 148.279113 70.603364  L 155.190625 71.717016  L 155.190625 73.944318  L 162.102136 75.05797  L 162.102136 78.398924  L 169.013648 79.512575  L 169.013648 81.739878  L 175.92516 82.853529  L 175.92516 87.308134  L 182.836671 88.421785  L 182.836671 90.649088  L 189.748183 91.762739  L 189.748183 98.444647  L 196.659694 99.558298  L 196.659694 109.58116  L 203.571206 110.694812  L 203.571206 111.808463  L 210.482718 112.922114  L 210.482718 120.717673  L 217.394229 121.831325  L 217.394229 122.944976  L 224.305741 124.058627  L 224.305741 126.28593  L 231.217252 127.399581  L 231.217252 131.854186  L 245.040276 134.081489  L 245.040276 135.19514  L 251.951787 136.308792  L 251.951787 146.331653  L 258.863299 147.445305  L 258.863299 149.672607  L 265.77481 150.786259  L 265.77481 151.89991  L 272.686322 153.013561  L 272.686322 154.127212  L 279.597834 155.240864  L 279.597834 156.354515  L 286.509345 157.468166  L 286.509345 169.718331  L 293.420857 170.831982  L 293.420857 174.172936  L 300.332368 175.286587  L 300.332368 185.309449  L 307.24388 186.4231  L 307.24388 188.650403  L 314.155392 189.764054  L 314.155392 195.332311  L 321.066903 196.445962  L 321.066903 199.786916  L 327.978415 200.900567  L 327.978415 203.12787  L 334.889926 204.241521  L 334.889926 206.468824  L 327.978415 207.582475  L 327.978415 213.150732  L 334.889926 214.264383  L 334.889926 223.173593  L 348.71295 225.400896  L 348.71295 227.628199  L 355.624461 228.74185  L 355.624461 229.855501  L 362.535973 230.969153  L 362.535973 239.878363  L 369.447484 240.992014  L 369.447484 245.44662  L 362.535973 246.560271  L 362.535973 246.560271  " clip-path="url(#p352a154e23)" style="fill: none; stroke: #31688e; stroke-width: 1.5; stroke-linecap: square"/>
   </g>
   <g id="line2d_16">
    <path d="M 10.048881 -1  L 10.048881 -0.670319  M 44.606439 19.375404  L 44.606439 20.489056  L 51.517951 21.602707  L 51.517951 22.716358  L 58.429462 23.83001  L 58.429462 24.943661  L 65.340974 26.057312  L 65.340974 27.170964  L 79.163997 29.398266  L 79.163997 36.080174  L 86.075509 37.193825  L 86.075509 40.534779  L 92.98702 41.648431  L 92.98702 43.875733  L 99.898532 44.989384  L 99.898532 47.216687  L 106.810044 48.330338  L 106.810044 49.44399  L 113.721555 50.557641  L 113.721555 51.671292  L 120.633067 52.784944  L 120.633067 55.012246  L 127.544578 56.125897  L 127.544578 61.694154  L 134.45609 62.807805  L 134.45609 66.148759  L 141.367602 67.262411  L 141.367602 71.717016  L 148.279113 72.830667  L 148.279113 78.398924  M 196.659694 109.58116  L 196.659694 111.808463  L 203.571206 112.922114  L 203.571206 116.263068  L 210.482718 117.376719  L 210.482718 122.944976  L 217.394229 124.058627  L 217.394229 126.28593  L 224.305741 127.399581  L 224.305741 138.536094  L 231.217252 139.649745  L 231.217252 140.763397  L 238.128764 141.877048  L 238.128764 142.990699  L 245.040276 144.104351  L 245.040276 145.218002  L 251.951787 146.331653  L 251.951787 151.89991  L 258.863299 153.013561  L 258.863299 156.354515  L 265.77481 157.468166  L 265.77481 161.922772  L 272.686322 163.036423  L 272.686322 169.718331  L 279.597834 170.831982  L 279.597834 180.854844  L 286.509345 181.968495  L 286.509345 183.082146  L 293.420857 184.195798  L 293.420857 194.218659  L 300.332368 195.332311  L 300.332368 198.673265  L 307.24388 199.786916  L 307.24388 202.014219  L 314.155392 203.12787  L 314.155392 218.718988  L 321.066903 219.83264  L 321.066903 220.946291  L 327.978415 222.059942  L 327.978415 229.855501  L 321.066903 230.969153  L 321.066903 233.196455  L 327.978415 234.310107  L 327.978415 237.65106  L 334.889926 238.764712  L 334.889926 240.992014  L 341.801438 242.105666  L 341.801438 246.560271  L 355.624461 248.787574  L 348.71295 249.901225  L 348.71295 254.35583  L 348.71295 254.35583  " clip-path="url(#p352a154e23)" style="fill: none; stroke: #26828e; stroke-width: 1.5; stroke-linecap: square"/>
   </g>
   <g id="line2d_17">
    <path d="M 58.429462 18.261753  L 58.429462 19.375404  L 72.252486 21.602707  L 72.252486 22.716358  L 79.163997 23.83001  L 79.163997 24.943661  L 86.075509 26.057312  L 86.075509 29.398266  L 92.98702 30.511917  L 92.98702 32.73922  L 99.898532 33.852871  L 99.898532 36.080174  L 106.810044 37.193825  L 106.810044 39.421128  L 113.721555 40.534779  L 113.721555 42.762082  L 120.633067 43.875733  L 120.633067 44.989384  L 127.544578 46.103036  L 127.544578 48.330338  L 134.45609 49.44399  L 134.45609 60.580503  L 141.367602 61.694154  L 141.367602 65.035108  L 148.279113 66.148759  L 148.279113 69.489713  L 155.190625 70.603364  L 155.190625 71.717016  L 162.102136 72.830667  L 162.102136 75.05797  L 169.013648 76.171621  L 169.013648 80.626226  L 175.92516 81.739878  L 175.92516 83.96718  L 182.836671 85.080831  L 182.836671 95.103693  L 189.748183 96.217345  L 189.748183 98.444647  L 203.571206 100.67195  L 203.571206 102.899252  L 210.482718 104.012904  L 210.482718 109.58116  L 217.394229 110.694812  L 217.394229 112.922114  L 224.305741 114.035765  L 217.394229 115.149417  L 217.394229 120.717673  L 224.305741 121.831325  L 224.305741 122.944976  L 231.217252 124.058627  L 231.217252 125.172278  L 238.128764 126.28593  L 238.128764 130.740535  L 245.040276 131.854186  L 245.040276 134.081489  L 251.951787 135.19514  L 251.951787 136.308792  L 258.863299 137.422443  L 258.863299 146.331653  L 265.77481 147.445305  L 265.77481 148.558956  L 272.686322 149.672607  L 272.686322 151.89991  L 279.597834 153.013561  L 279.597834 155.240864  L 286.509345 156.354515  L 286.509345 160.80912  L 272.686322 163.036423  L 272.686322 166.377377  L 286.509345 168.604679  L 286.509345 169.718331  L 293.420857 170.831982  L 293.420857 173.059285  L 307.24388 175.286587  L 307.24388 177.51389  L 300.332368 178.627541  L 300.332368 179.741193  L 293.420857 180.854844  L 293.420857 183.082146  L 300.332368 184.195798  L 300.332368 185.309449  L 307.24388 186.4231  L 307.24388 191.991357  L 314.155392 193.105008  L 314.155392 194.218659  L 321.066903 195.332311  L 321.066903 197.559613  L 327.978415 198.673265  L 327.978415 200.900567  L 321.066903 202.014219  L 321.066903 205.355173  L 327.978415 206.468824  L 327.978415 207.582475  L 334.889926 208.696126  L 334.889926 212.03708  L 321.066903 214.264383  L 321.066903 217.605337  L 341.801438 220.946291  L 341.801438 223.173593  L 348.71295 224.287245  L 348.71295 230.969153  L 355.624461 232.082804  L 355.624461 233.196455  L 362.535973 234.310107  L 355.624461 235.423758  L 355.624461 236.537409  L 348.71295 237.65106  L 348.71295 247.673922  L 341.801438 248.787574  L 341.801438 251.014876  L 355.624461 253.242179  L 355.624461 253.242179  " clip-path="url(#p352a154e23)" style="fill: none; stroke: #1f9e89; stroke-width: 1.5; stroke-linecap: square"/>
   </g>
   <g id="line2d_18">
    <path d="M 51.517951 18.261753  L 58.429462 19.375404  L 58.429462 20.489056  L 65.340974 21.602707  L 65.340974 23.83001  L 72.252486 24.943661  L 72.252486 26.057312  L 79.163997 27.170964  L 79.163997 28.284615  L 86.075509 29.398266  L 86.075509 31.625569  L 92.98702 32.73922  L 92.98702 34.966523  L 99.898532 36.080174  L 99.898532 39.421128  L 106.810044 40.534779  L 106.810044 42.762082  L 113.721555 43.875733  L 113.721555 44.989384  L 120.633067 46.103036  L 120.633067 47.216687  L 127.544578 48.330338  L 127.544578 49.44399  L 134.45609 50.557641  L 134.45609 57.239549  L 141.367602 58.3532  L 141.367602 60.580503  L 148.279113 61.694154  L 148.279113 63.921457  L 155.190625 65.035108  L 155.190625 71.717016  L 162.102136 72.830667  L 162.102136 75.05797  L 169.013648 76.171621  L 169.013648 78.398924  L 175.92516 79.512575  L 175.92516 81.739878  L 182.836671 82.853529  L 182.836671 86.194483  L 189.748183 87.308134  L 189.748183 98.444647  L 196.659694 99.558298  L 196.659694 101.785601  L 203.571206 102.899252  L 203.571206 114.035765  L 210.482718 115.149417  L 210.482718 116.263068  L 217.394229 117.376719  L 217.394229 120.717673  L 224.305741 121.831325  L 224.305741 129.626884  L 231.217252 130.740535  L 231.217252 136.308792  L 238.128764 137.422443  L 238.128764 139.649745  L 245.040276 140.763397  L 245.040276 146.331653  L 251.951787 147.445305  L 251.951787 150.786259  L 258.863299 151.89991  L 258.863299 157.468166  L 265.77481 158.581818  L 265.77481 159.695469  L 272.686322 160.80912  L 272.686322 161.922772  L 279.597834 163.036423  L 279.597834 166.377377  L 272.686322 167.491028  L 272.686322 168.604679  L 265.77481 169.718331  L 265.77481 171.945633  L 272.686322 173.059285  L 272.686322 175.286587  L 286.509345 177.51389  L 286.509345 179.741193  L 293.420857 180.854844  L 293.420857 188.650403  L 300.332368 189.764054  L 300.332368 191.991357  L 314.155392 194.218659  L 314.155392 210.923429  L 321.066903 212.03708  L 321.066903 214.264383  L 327.978415 215.378034  L 327.978415 219.83264  L 314.155392 222.059942  L 314.155392 225.400896  L 321.066903 226.514547  L 334.889926 227.628199  L 355.624461 230.969153  L 355.624461 235.423758  L 348.71295 236.537409  L 348.71295 240.992014  L 355.624461 242.105666  L 355.624461 244.332968  L 327.978415 248.787574  L 327.978415 252.128527  L 327.978415 252.128527  " clip-path="url(#p352a154e23)" style="fill: none; stroke: #35b779; stroke-width: 1.5; stroke-linecap: square"/>
   </g>
   <g id="line2d_19">
    <path d="M 65.340974 18.261753  L 65.340974 19.375404  L 86.075509 22.716358  L 86.075509 24.943661  L 92.98702 26.057312  L 92.98702 28.284615  L 99.898532 29.398266  L 99.898532 30.511917  L 106.810044 31.625569  L 106.810044 33.852871  L 113.721555 34.966523  L 113.721555 36.080174  L 120.633067 37.193825  L 120.633067 40.534779  L 127.544578 41.648431  L 127.544578 42.762082  L 134.45609 43.875733  L 134.45609 49.44399  L 141.367602 50.557641  L 141.367602 52.784944  L 148.279113 53.898595  L 148.279113 57.239549  L 155.190625 58.3532  L 155.190625 61.694154  L 162.102136 62.807805  L 162.102136 69.489713  L 169.013648 70.603364  L 169.013648 72.830667  L 175.92516 73.944318  L 175.92516 79.512575  L 182.836671 80.626226  L 182.836671 82.853529  L 189.748183 83.96718  L 189.748183 85.080831  L 196.659694 86.194483  L 196.659694 87.308134  L 203.571206 88.421785  L 203.571206 95.103693  L 210.482718 96.217345  L 210.482718 98.444647  L 224.305741 100.67195  L 224.305741 107.353858  L 231.217252 108.467509  L 231.217252 117.376719  L 238.128764 118.490371  L 238.128764 119.604022  L 251.951787 121.831325  L 251.951787 122.944976  L 258.863299 124.058627  L 258.863299 127.399581  L 251.951787 128.513232  L 251.951787 131.854186  L 258.863299 132.967838  L 258.863299 134.081489  L 265.77481 135.19514  L 265.77481 136.308792  L 272.686322 137.422443  L 272.686322 141.877048  L 265.77481 142.990699  L 265.77481 146.331653  L 279.597834 148.558956  L 279.597834 149.672607  L 286.509345 150.786259  L 286.509345 151.89991  L 293.420857 153.013561  L 286.509345 154.127212  L 286.509345 155.240864  L 279.597834 156.354515  L 279.597834 157.468166  L 286.509345 158.581818  L 286.509345 159.695469  L 293.420857 160.80912  L 293.420857 161.922772  L 300.332368 163.036423  L 300.332368 164.150074  L 307.24388 165.263726  L 307.24388 168.604679  L 314.155392 169.718331  L 314.155392 181.968495  L 321.066903 183.082146  L 321.066903 184.195798  L 327.978415 185.309449  L 327.978415 188.650403  L 334.889926 189.764054  L 334.889926 193.105008  L 341.801438 194.218659  L 341.801438 195.332311  L 348.71295 196.445962  L 348.71295 197.559613  L 355.624461 198.673265  L 355.624461 205.355173  L 362.535973 206.468824  L 362.535973 208.696126  L 369.447484 209.809778  L 369.447484 227.628199  L 362.535973 228.74185  L 362.535973 230.969153  L 355.624461 232.082804  L 355.624461 233.196455  L 348.71295 234.310107  L 348.71295 237.65106  L 355.624461 238.764712  L 355.624461 239.878363  L 369.447484 242.105666  L 383.270508 243.219317  L 383.270508 246.560271  L 376.358996 247.673922  L 376.358996 251.014876  L 383.270508 252.128527  L 383.270508 252.128527  " clip-path="url(#p352a154e23)" style="fill: none; stroke: #6ece58; stroke-width: 1.5; stroke-linecap: square"/>
   </g>
   <g id="line2d_20">
    <path d="M 148.279113 61.694154  L 155.190625 62.807805  L 155.190625 65.035108  L 169.013648 67.262411  L 169.013648 76.171621  L 175.92516 77.285272  L 175.92516 79.512575  L 182.836671 80.626226  L 182.836671 81.739878  L 189.748183 82.853529  L 189.748183 91.762739  L 203.571206 93.990042  L 203.571206 95.103693  L 210.482718 96.217345  L 210.482718 98.444647  L 203.571206 99.558298  L 203.571206 101.785601  L 210.482718 102.899252  L 210.482718 106.240206  L 217.394229 107.353858  L 217.394229 108.467509  L 224.305741 109.58116  L 224.305741 110.694812  L 231.217252 111.808463  L 231.217252 116.263068  L 224.305741 117.376719  L 224.305741 120.717673  L 231.217252 121.831325  L 231.217252 124.058627  L 245.040276 126.28593  L 245.040276 127.399581  L 251.951787 128.513232  L 251.951787 130.740535  L 258.863299 131.854186  L 258.863299 146.331653  L 265.77481 147.445305  L 265.77481 150.786259  L 286.509345 154.127212  L 286.509345 155.240864  L 293.420857 156.354515  L 293.420857 158.581818  L 286.509345 159.695469  L 286.509345 177.51389  L 293.420857 178.627541  L 293.420857 184.195798  L 300.332368 185.309449  L 300.332368 186.4231  L 307.24388 187.536752  L 307.24388 188.650403  L 321.066903 190.877706  L 321.066903 191.991357  L 327.978415 193.105008  L 327.978415 194.218659  L 334.889926 195.332311  L 327.978415 196.445962  L 327.978415 197.559613  L 321.066903 198.673265  L 321.066903 202.014219  L 327.978415 203.12787  L 327.978415 210.923429  L 321.066903 212.03708  L 327.978415 213.150732  L 327.978415 215.378034  L 334.889926 216.491686  L 334.889926 217.605337  L 348.71295 219.83264  L 348.71295 222.059942  L 355.624461 223.173593  L 355.624461 228.74185  L 362.535973 229.855501  L 362.535973 232.082804  L 369.447484 233.196455  L 369.447484 234.310107  L 355.624461 236.537409  L 355.624461 239.878363  L 362.535973 240.992014  L 362.535973 242.105666  L 369.447484 243.219317  L 369.447484 248.787574  L 362.535973 249.901225  L 362.535973 251.014876  L 355.624461 252.128527  L 355.624461 253.242179  L 355.624461 253.242179  " clip-path="url(#p352a154e23)" style="fill: none; stroke: #b5de2b; stroke-width: 1.5; stroke-linecap: square"/>
   </g>
   <g id="line2d_21">
    <path d="M 37.629438 13.180934  L 38.476098 13.452666  L 39.348749 13.736591  L 40.248188 14.033256  L 41.175238 14.343234  L 42.130746 14.667121  L 43.115586 15.005541  L 44.130658 15.359147  L 45.176891 15.72862  L 46.25524 16.114672  L 47.366693 16.518047  L 48.512264 16.939523  L 49.693002 17.379911  L 50.909986 17.84006  L 52.164329 18.320857  L 53.457177 18.823228  L 54.789712 19.348142  L 56.163153 19.896609  L 57.578756 20.469688  L 59.037815 21.068482  L 60.541663 21.694145  L 62.091676 22.347883  L 63.689271 23.030956  L 65.335908 23.744679  L 67.033094 24.490429  L 68.782379 25.269642  L 70.585363 26.083821  L 72.443695 26.934533  L 74.359073 27.823418  L 76.333249 28.75219  L 78.368027 29.722637  L 80.465269 30.736631  L 82.626891 31.796125  L 84.85487 32.90316  L 87.151243 34.059871  L 89.51811 35.268485  L 91.957633 36.531333  L 94.472045 37.850847  L 97.063643 39.229571  L 99.734797 40.670161  L 102.48795 42.175394  L 105.325618 43.748169  L 108.250396 45.391519  L 111.264958 47.108609  L 114.372061 48.902748  L 117.574544 50.777394  L 120.875336 52.73616  L 124.277455 54.78282  L 127.784011 56.921318  L 131.39821 59.155774  L 135.123358 61.490496  L 138.962858 63.929981  L 142.920223 66.478932  L 146.999069 69.142259  L 151.203127 71.925096  L 155.53624 74.832804  L 160.002369 77.870988  L 164.605599 81.045501  L 169.350137 84.362461  L 174.240321 87.828261  L 179.280623 91.449578  L 184.475651 95.233392  L 189.830154 99.186994  L 195.349028 103.318002  L 201.037319 107.634377  L 206.900228 112.144438  L 212.943114 116.856874  L 219.171504 121.780768  L 225.59109 126.925607  L 232.207744 132.301306  L 239.027513 137.918224  L 246.056634 143.787186  L 253.301532 149.9195  L 260.768833 156.326985  L 268.465362 163.021987  L 276.398158 170.017408  L 284.574472 177.326728  L 293.00178 184.964034  L 301.687788 192.944041  L 310.640436 201.282129  L 319.867909 209.994365  L 329.378646 219.097537  L 339.18134 228.609188  L 349.284954 238.547648  L 359.698726 248.932067  L 370.432177 259.782457  L 381.495121 271.119728  L 392.897672 282.965726  L 394.182259 284.318625  " clip-path="url(#p352a154e23)" style="fill: none; stroke: #ff7f0e; stroke-width: 1.5; stroke-linecap: square"/>
   </g>
   <g id="line2d_22">
    <path d="M 37.629438 17.394957  L 38.476098 17.710214  L 39.348749 18.035148  L 40.248188 18.370057  L 41.175238 18.715248  L 42.130746 19.071034  L 43.115586 19.437743  L 44.130658 19.815709  L 45.176891 20.205277  L 46.25524 20.606804  L 47.366693 21.020657  L 48.512264 21.447215  L 49.693002 21.886867  L 50.909986 22.340015  L 52.164329 22.807074  L 53.457177 23.28847  L 54.789712 23.784645  L 56.163153 24.29605  L 57.578756 24.823155  L 59.037815 25.366441  L 60.541663 25.926404  L 62.091676 26.503556  L 63.689271 27.098426  L 65.335908 27.711558  L 67.033094 28.343511  L 68.782379 28.994863  L 70.585363 29.66621  L 72.443695 30.358167  L 74.359073 31.071364  L 76.333249 31.806456  L 78.368027 32.564113  L 80.465269 33.345028  L 82.626891 34.149916  L 84.85487 34.979511  L 87.151243 35.834574  L 89.51811 36.715885  L 91.957633 37.62425  L 94.472045 38.5605  L 97.063643 39.52549  L 99.734797 40.520104  L 102.48795 41.54525  L 105.325618 42.601866  L 108.250396 43.690917  L 111.264958 44.8134  L 114.372061 45.97034  L 117.574544 47.162796  L 120.875336 48.391857  L 124.277455 49.658648  L 127.784011 50.964327  L 131.39821 52.310087  L 135.123358 53.697158  L 138.962858 55.12681  L 142.920223 56.600348  L 146.999069 58.119121  L 151.203127 59.684516  L 155.53624 61.297966  L 160.002369 62.960945  L 164.605599 64.674973  L 169.350137 66.441619  L 174.240321 68.262496  L 179.280623 70.13927  L 184.475651 72.073657  L 189.830154 74.067425  L 195.349028 76.122397  L 201.037319 78.240452  L 206.900228 80.423526  L 212.943114 82.673616  L 219.171504 84.992779  L 225.59109 87.383134  L 232.207744 89.846868  L 239.027513 92.386233  L 246.056634 95.003551  L 253.301532 97.701214  L 260.768833 100.48169  L 268.465362 103.347519  L 276.398158 106.301323  L 284.574472 109.345802  L 293.00178 112.48374  L 301.687788 115.718005  L 310.640436 119.051555  L 319.867909 122.487437  L 329.378646 126.028793  L 339.18134 129.67886  L 349.284954 133.440976  L 359.698726 137.318581  L 370.432177 141.315219  L 381.495121 145.434544  L 392.897672 149.680324  L 394.182259 150.158645  " clip-path="url(#p352a154e23)" style="fill: none; stroke-dasharray: 5.55,2.4; stroke-dashoffset: 0; stroke: #ff7f0e; stroke-width: 1.5"/>
   </g>
   <g id="patch_3">
    <path d="M 37.694928 259.622079  L 37.694928 7.12524  " style="fill: none; stroke: #000000; stroke-width: 0.8; stroke-linejoin: miter; stroke-linecap: square"/>
   </g>
   <g id="patch_4">
    <path d="M 390.182019 259.622079  L 390.182019 7.12524  " style="fill: none; stroke: #000000; stroke-width: 0.8; stroke-linejoin: miter; stroke-linecap: square"/>
   </g>
   <g id="patch_5">
    <path d="M 37.694928 259.622079  L 390.182019 259.622079  " style="fill: none; stroke: #000000; stroke-width: 0.8; stroke-linejoin: miter; stroke-linecap: square"/>
   </g>
   <g id="patch_6">
    <path d="M 37.694928 7.12524  L 390.182019 7.12524  " style="fill: none; stroke: #000000; stroke-width: 0.8; stroke-linejoin: miter; stroke-linecap: square"/>
   </g>
   <g id="text_14">
    <!-- $t$ [s] -->
    <g transform="translate(115.103857 252.338517) scale(0.11 -0.11)">
     <use xlink:href="#STIXGeneral-Italic-74" transform="translate(0 0.75)"/>
     <use xlink:href="#Roboto-Regular-20" transform="translate(27.799988 0.75)"/>
     <use xlink:href="#Roboto-Regular-5b" transform="translate(52.604675 0.75)"/>
     <use xlink:href="#Roboto-Regular-73" transform="translate(79.118347 0.75)"/>
     <use xlink:href="#Roboto-Regular-5d" transform="translate(130.729675 0.75)"/>
    </g>
   </g>
   <g id="text_15">
    <!-- $d$ [cm] -->
    <g transform="translate(57.298971 182.708407) rotate(-90) scale(0.11 -0.11)">
     <use xlink:href="#STIXGeneral-Italic-64" transform="translate(0 0.75)"/>
     <use xlink:href="#Roboto-Regular-20" transform="translate(49.999985 0.75)"/>
     <use xlink:href="#Roboto-Regular-5b" transform="translate(74.804672 0.75)"/>
     <use xlink:href="#Roboto-Regular-63" transform="translate(101.318344 0.75)"/>
     <use xlink:href="#Roboto-Regular-6d" transform="translate(153.662094 0.75)"/>
     <use xlink:href="#Roboto-Regular-5d" transform="translate(241.357407 0.75)"/>
    </g>
   </g>
   <g id="legend_1">
    <g id="patch_7">
     <path d="M 229.982019 74.203365  L 383.182019 74.203365  Q 385.182019 74.203365 385.182019 72.203365  L 385.182019 14.12524  Q 385.182019 12.12524 383.182019 12.12524  L 229.982019 12.12524  Q 227.982019 12.12524 227.982019 14.12524  L 227.982019 72.203365  Q 227.982019 74.203365 229.982019 74.203365  z " style="fill: #ffffff; opacity: 0.8; stroke: #cccccc; stroke-linejoin: miter"/>
    </g>
    <g id="text_16">
     <!-- positions -->
     <g transform="translate(284.032019 24.37524) scale(0.11 -0.11)">
      <use xlink:href="#Roboto-Regular-70"/>
      <use xlink:href="#Roboto-Regular-6f" x="56.152344"/>
      <use xlink:href="#Roboto-Regular-73" x="113.183594"/>
      <use xlink:href="#Roboto-Regular-69" x="164.794922"/>
      <use xlink:href="#Roboto-Regular-74" x="189.111328"/>
      <use xlink:href="#Roboto-Regular-69" x="221.826172"/>
      <use xlink:href="#Roboto-Regular-6f" x="246.142578"/>
      <use xlink:href="#Roboto-Regular-6e" x="303.173828"/>
      <use xlink:href="#Roboto-Regular-73" x="358.398438"/>
     </g>
    </g>
    <g id="line2d_23">
     <path d="M 231.982019 35.609615  L 241.982019 35.609615  L 251.982019 35.609615  " style="fill: none; stroke: #440154; stroke-width: 1.5; stroke-linecap: square"/>
    </g>
    <g id="text_17">
     <!-- $x_{1}$ -->
     <g transform="translate(259.982019 39.109615) scale(0.1 -0.1)">
      <defs>
       <path id="STIXGeneral-Italic-78" d="M 1555 2272  L 1632 1907  Q 1971 2426 2179 2624  Q 2387 2822 2598 2822  Q 2714 2822 2787 2755  Q 2861 2688 2861 2585  Q 2861 2483 2800 2419  Q 2739 2355 2643 2355  Q 2586 2355 2490 2409  Q 2394 2464 2310 2464  Q 2125 2464 1683 1690  Q 1683 1606 1734 1402  L 1939 544  Q 2003 282 2131 282  Q 2234 282 2432 538  Q 2451 563 2476 598  Q 2502 634 2521 662  Q 2541 691 2566 717  L 2662 659  Q 2387 230 2227 80  Q 2067 -70 1882 -70  Q 1728 -70 1645 26  Q 1562 122 1504 365  L 1318 1126  L 755 365  Q 557 96 432 13  Q 307 -70 147 -70  Q 0 -70 -86 0  Q -173 70 -173 198  Q -173 294 -112 361  Q -51 429 45 429  Q 122 429 250 358  Q 346 301 416 301  Q 525 301 742 614  L 1267 1357  L 1088 2150  Q 1024 2432 969 2509  Q 915 2586 794 2586  Q 717 2586 544 2541  L 429 2509  L 410 2611  L 480 2637  Q 992 2822 1229 2822  Q 1350 2822 1420 2707  Q 1491 2592 1555 2272  z " transform="scale(0.015625)"/>
       <path id="STIXGeneral-Regular-31" d="M 2522 0  L 755 0  L 755 96  Q 1107 115 1235 227  Q 1363 339 1363 608  L 1363 3482  Q 1363 3795 1171 3795  Q 1082 3795 883 3718  L 710 3654  L 710 3744  L 1856 4326  L 1914 4307  L 1914 486  Q 1914 275 2042 185  Q 2170 96 2522 96  L 2522 0  z " transform="scale(0.015625)"/>
      </defs>
      <use xlink:href="#STIXGeneral-Italic-78" transform="translate(0 0.90625)"/>
      <use xlink:href="#STIXGeneral-Regular-31" transform="translate(44.399994 -12.321875) scale(0.7)"/>
     </g>
    </g>
    <g id="line2d_24">
     <path d="M 231.982019 50.140865  L 241.982019 50.140865  L 251.982019 50.140865  " style="fill: none; stroke: #482878; stroke-width: 1.5; stroke-linecap: square"/>
    </g>
    <g id="text_18">
     <!-- $x_{2}$ -->
     <g transform="translate(259.982019 53.640865) scale(0.1 -0.1)">
      <defs>
       <path id="STIXGeneral-Regular-32" d="M 3034 877  L 2688 0  L 186 0  L 186 77  L 1325 1286  Q 1773 1754 1965 2144  Q 2157 2534 2157 2950  Q 2157 3379 1920 3616  Q 1683 3853 1267 3853  Q 922 3853 720 3673  Q 518 3494 326 3021  L 192 3053  Q 301 3648 630 3987  Q 960 4326 1523 4326  Q 2054 4326 2380 4006  Q 2707 3686 2707 3200  Q 2707 2477 1888 1613  L 832 486  L 2330 486  Q 2541 486 2665 569  Q 2790 653 2944 915  L 3034 877  z " transform="scale(0.015625)"/>
      </defs>
      <use xlink:href="#STIXGeneral-Italic-78" transform="translate(0 0.90625)"/>
      <use xlink:href="#STIXGeneral-Regular-32" transform="translate(44.399994 -12.321875) scale(0.7)"/>
     </g>
    </g>
    <g id="line2d_25">
     <path d="M 231.982019 64.672115  L 241.982019 64.672115  L 251.982019 64.672115  " style="fill: none; stroke: #3e4989; stroke-width: 1.5; stroke-linecap: square"/>
    </g>
    <g id="text_19">
     <!-- $x_{3}$ -->
     <g transform="translate(259.982019 68.172115) scale(0.1 -0.1)">
      <defs>
       <path id="STIXGeneral-Regular-33" d="M 390 3264  L 288 3290  Q 435 3770 748 4048  Q 1062 4326 1542 4326  Q 1990 4326 2265 4083  Q 2541 3840 2541 3450  Q 2541 2925 1946 2566  Q 2298 2413 2477 2227  Q 2758 1914 2758 1402  Q 2758 890 2464 506  Q 2246 211 1840 60  Q 1434 -90 979 -90  Q 262 -90 262 275  Q 262 378 339 442  Q 416 506 525 506  Q 685 506 915 339  Q 1197 141 1466 141  Q 1818 141 2058 425  Q 2298 710 2298 1120  Q 2298 1856 1632 2048  Q 1434 2112 979 2112  L 979 2202  Q 1338 2323 1517 2432  Q 2035 2726 2035 3290  Q 2035 3610 1852 3776  Q 1670 3942 1344 3942  Q 768 3942 390 3264  z " transform="scale(0.015625)"/>
      </defs>
      <use xlink:href="#STIXGeneral-Italic-78" transform="translate(0 0.90625)"/>
      <use xlink:href="#STIXGeneral-Regular-33" transform="translate(44.399994 -12.321875) scale(0.7)"/>
     </g>
    </g>
    <g id="line2d_26">
     <path d="M 288.382019 35.609615  L 298.382019 35.609615  L 308.382019 35.609615  " style="fill: none; stroke: #31688e; stroke-width: 1.5; stroke-linecap: square"/>
    </g>
    <g id="text_20">
     <!-- $x_{4}$ -->
     <g transform="translate(316.382019 39.109615) scale(0.1 -0.1)">
      <defs>
       <path id="STIXGeneral-Regular-34" d="M 3027 1069  L 2368 1069  L 2368 0  L 1869 0  L 1869 1069  L 77 1069  L 77 1478  L 2086 4326  L 2368 4326  L 2368 1478  L 3027 1478  L 3027 1069  z M 1869 1478  L 1869 3674  L 333 1478  L 1869 1478  z " transform="scale(0.015625)"/>
      </defs>
      <use xlink:href="#STIXGeneral-Italic-78" transform="translate(0 0.90625)"/>
      <use xlink:href="#STIXGeneral-Regular-34" transform="translate(44.399994 -12.321875) scale(0.7)"/>
     </g>
    </g>
    <g id="line2d_27">
     <path d="M 288.382019 50.140865  L 298.382019 50.140865  L 308.382019 50.140865  " style="fill: none; stroke: #26828e; stroke-width: 1.5; stroke-linecap: square"/>
    </g>
    <g id="text_21">
     <!-- $x_{5}$ -->
     <g transform="translate(316.382019 53.640865) scale(0.1 -0.1)">
      <defs>
       <path id="STIXGeneral-Regular-35" d="M 2803 4358  L 2573 3814  Q 2534 3731 2400 3731  L 1158 3731  L 902 3187  Q 1606 3053 1920 2896  Q 2234 2739 2502 2368  Q 2726 2061 2726 1555  Q 2726 1094 2576 780  Q 2426 467 2099 224  Q 1664 -90 1011 -90  Q 646 -90 422 19  Q 198 128 198 307  Q 198 550 486 550  Q 717 550 960 352  Q 1210 147 1414 147  Q 1747 147 2012 480  Q 2278 813 2278 1229  Q 2278 1843 1850 2189  Q 1293 2637 486 2637  Q 410 2637 410 2688  L 416 2720  L 1114 4237  L 2438 4237  Q 2547 4237 2608 4269  Q 2669 4301 2746 4403  L 2803 4358  z " transform="scale(0.015625)"/>
      </defs>
      <use xlink:href="#STIXGeneral-Italic-78" transform="translate(0 0.90625)"/>
      <use xlink:href="#STIXGeneral-Regular-35" transform="translate(44.399994 -12.321875) scale(0.7)"/>
     </g>
    </g>
    <g id="line2d_28">
     <path d="M 288.382019 64.672115  L 298.382019 64.672115  L 308.382019 64.672115  " style="fill: none; stroke: #1f9e89; stroke-width: 1.5; stroke-linecap: square"/>
    </g>
    <g id="text_22">
     <!-- $x_{6}$ -->
     <g transform="translate(316.382019 68.172115) scale(0.1 -0.1)">
      <defs>
       <path id="STIXGeneral-Regular-36" d="M 2854 4378  L 2867 4275  Q 2112 4154 1606 3664  Q 1101 3174 973 2451  Q 1344 2739 1786 2739  Q 2349 2739 2672 2380  Q 2995 2022 2995 1402  Q 2995 774 2669 378  Q 2291 -90 1651 -90  Q 870 -90 518 557  Q 218 1107 218 1786  Q 218 2835 915 3552  Q 1312 3962 1731 4131  Q 2150 4301 2854 4378  z M 2419 1203  Q 2419 2445 1555 2445  Q 1235 2445 1024 2275  Q 813 2106 813 1702  Q 813 954 1046 522  Q 1280 90 1722 90  Q 2061 90 2240 394  Q 2419 698 2419 1203  z " transform="scale(0.015625)"/>
      </defs>
      <use xlink:href="#STIXGeneral-Italic-78" transform="translate(0 0.90625)"/>
      <use xlink:href="#STIXGeneral-Regular-36" transform="translate(44.399994 -12.321875) scale(0.7)"/>
     </g>
    </g>
    <g id="line2d_29">
     <path d="M 344.782019 35.609615  L 354.782019 35.609615  L 364.782019 35.609615  " style="fill: none; stroke: #35b779; stroke-width: 1.5; stroke-linecap: square"/>
    </g>
    <g id="text_23">
     <!-- $x_{7}$ -->
     <g transform="translate(372.782019 39.109615) scale(0.1 -0.1)">
      <defs>
       <path id="STIXGeneral-Regular-37" d="M 2874 4134  L 1517 -51  L 1101 -51  L 2368 3763  L 992 3763  Q 717 3763 582 3667  Q 448 3571 243 3238  L 128 3296  L 512 4237  L 2874 4237  L 2874 4134  z " transform="scale(0.015625)"/>
      </defs>
      <use xlink:href="#STIXGeneral-Italic-78" transform="translate(0 0.90625)"/>
      <use xlink:href="#STIXGeneral-Regular-37" transform="translate(44.399994 -12.321875) scale(0.7)"/>
     </g>
    </g>
    <g id="line2d_30">
     <path d="M 344.782019 50.140865  L 354.782019 50.140865  L 364.782019 50.140865  " style="fill: none; stroke: #6ece58; stroke-width: 1.5; stroke-linecap: square"/>
    </g>
    <g id="text_24">
     <!-- $x_{8}$ -->
     <g transform="translate(372.782019 53.640865) scale(0.1 -0.1)">
      <defs>
       <path id="STIXGeneral-Regular-38" d="M 2848 992  Q 2848 499 2505 204  Q 2163 -90 1587 -90  Q 1050 -90 704 204  Q 358 499 358 954  Q 358 1293 524 1533  Q 691 1773 1190 2125  Q 710 2522 553 2765  Q 397 3008 397 3328  Q 397 3782 745 4054  Q 1094 4326 1638 4326  Q 2106 4326 2410 4060  Q 2714 3795 2714 3411  Q 2714 3059 2531 2848  Q 2349 2637 1856 2374  Q 2432 1990 2640 1689  Q 2848 1389 2848 992  z M 2272 3411  Q 2272 3744 2086 3945  Q 1901 4147 1574 4147  Q 1248 4147 1059 3977  Q 870 3808 870 3513  Q 870 3219 1059 2979  Q 1248 2739 1670 2490  Q 1997 2682 2134 2896  Q 2272 3110 2272 3411  z M 1734 1741  L 1357 1997  Q 1075 1766 960 1545  Q 845 1325 845 1011  Q 845 576 1065 333  Q 1286 90 1658 90  Q 1971 90 2166 285  Q 2362 480 2362 794  Q 2362 1082 2214 1299  Q 2067 1517 1734 1741  z " transform="scale(0.015625)"/>
      </defs>
      <use xlink:href="#STIXGeneral-Italic-78" transform="translate(0 0.90625)"/>
      <use xlink:href="#STIXGeneral-Regular-38" transform="translate(44.399994 -12.321875) scale(0.7)"/>
     </g>
    </g>
    <g id="line2d_31">
     <path d="M 344.782019 64.672115  L 354.782019 64.672115  L 364.782019 64.672115  " style="fill: none; stroke: #b5de2b; stroke-width: 1.5; stroke-linecap: square"/>
    </g>
    <g id="text_25">
     <!-- $x_{9}$ -->
     <g transform="translate(372.782019 68.172115) scale(0.1 -0.1)">
      <defs>
       <path id="STIXGeneral-Regular-39" d="M 378 -141  L 358 -13  Q 1094 115 1603 608  Q 2112 1101 2304 1882  Q 1933 1517 1344 1517  Q 826 1517 509 1875  Q 192 2234 192 2816  Q 192 3462 573 3894  Q 954 4326 1523 4326  Q 2131 4326 2528 3840  Q 2938 3328 2938 2522  Q 2938 1958 2742 1462  Q 2547 966 2170 621  Q 1773 262 1395 105  Q 1018 -51 378 -141  z M 2317 2272  L 2317 2522  Q 2317 4147 1472 4147  Q 1171 4147 1005 3930  Q 909 3802 845 3546  Q 781 3290 781 3034  Q 781 2464 995 2128  Q 1210 1792 1568 1792  Q 1824 1792 2070 1917  Q 2317 2042 2317 2272  z " transform="scale(0.015625)"/>
      </defs>
      <use xlink:href="#STIXGeneral-Italic-78" transform="translate(0 0.90625)"/>
      <use xlink:href="#STIXGeneral-Regular-39" transform="translate(44.399994 -12.321875) scale(0.7)"/>
     </g>
    </g>
   </g>
   <g id="axes_2">
    <g id="patch_8">
     <path d="M 72.943637 234.372396  L 213.938473 234.372396  L 213.938473 133.37366  L 72.943637 133.37366  z " style="fill: #ffffff"/>
    </g>
    <g id="matplotlib.axis_3">
     <g id="xtick_6">
      <g id="line2d_32">
       <g>
        <use xlink:href="#maba504bea8" x="159.520926" y="234.372396" style="stroke: #000000; stroke-width: 0.8"/>
       </g>
      </g>
      <g id="text_26">
       <!-- $\mathdefault{10^{2}}$ -->
       <g transform="translate(150.940926 249.622396) scale(0.11 -0.11)">
        <use xlink:href="#Roboto-Regular-31" transform="translate(0 0.565625)"/>
        <use xlink:href="#Roboto-Regular-30" transform="translate(56.201172 0.565625)"/>
        <use xlink:href="#Roboto-Regular-32" transform="translate(113.326836 37.545313) scale(0.7)"/>
       </g>
      </g>
     </g>
     <g id="xtick_7">
      <g id="line2d_33">
       <defs>
        <path id="mce0fc42ce4" d="M 0 0  L 0 2  " style="stroke: #000000; stroke-width: 0.6"/>
       </defs>
       <g>
        <use xlink:href="#mce0fc42ce4" x="72.943637" y="234.372396" style="stroke: #000000; stroke-width: 0.6"/>
       </g>
      </g>
     </g>
     <g id="xtick_8">
      <g id="line2d_34">
       <g>
        <use xlink:href="#mce0fc42ce4" x="94.755022" y="234.372396" style="stroke: #000000; stroke-width: 0.6"/>
       </g>
      </g>
     </g>
     <g id="xtick_9">
      <g id="line2d_35">
       <g>
        <use xlink:href="#mce0fc42ce4" x="110.230445" y="234.372396" style="stroke: #000000; stroke-width: 0.6"/>
       </g>
      </g>
     </g>
     <g id="xtick_10">
      <g id="line2d_36">
       <g>
        <use xlink:href="#mce0fc42ce4" x="122.234117" y="234.372396" style="stroke: #000000; stroke-width: 0.6"/>
       </g>
      </g>
     </g>
     <g id="xtick_11">
      <g id="line2d_37">
       <g>
        <use xlink:href="#mce0fc42ce4" x="132.04183" y="234.372396" style="stroke: #000000; stroke-width: 0.6"/>
       </g>
      </g>
     </g>
     <g id="xtick_12">
      <g id="line2d_38">
       <g>
        <use xlink:href="#mce0fc42ce4" x="140.334134" y="234.372396" style="stroke: #000000; stroke-width: 0.6"/>
       </g>
      </g>
     </g>
     <g id="xtick_13">
      <g id="line2d_39">
       <g>
        <use xlink:href="#mce0fc42ce4" x="147.517254" y="234.372396" style="stroke: #000000; stroke-width: 0.6"/>
       </g>
      </g>
     </g>
     <g id="xtick_14">
      <g id="line2d_40">
       <g>
        <use xlink:href="#mce0fc42ce4" x="153.853215" y="234.372396" style="stroke: #000000; stroke-width: 0.6"/>
       </g>
      </g>
     </g>
     <g id="xtick_15">
      <g id="line2d_41">
       <g>
        <use xlink:href="#mce0fc42ce4" x="196.807734" y="234.372396" style="stroke: #000000; stroke-width: 0.6"/>
       </g>
      </g>
     </g>
    </g>
    <g id="matplotlib.axis_4">
     <g id="ytick_7">
      <g id="line2d_42">
       <g>
        <use xlink:href="#m8befa72937" x="72.943637" y="133.37366" style="stroke: #000000; stroke-width: 0.8"/>
       </g>
      </g>
      <g id="text_27">
       <!-- $\mathdefault{10^{0}}$ -->
       <g transform="translate(48.783637 137.49866) scale(0.11 -0.11)">
        <use xlink:href="#Roboto-Regular-31" transform="translate(0 0.565625)"/>
        <use xlink:href="#Roboto-Regular-30" transform="translate(56.201172 0.565625)"/>
        <use xlink:href="#Roboto-Regular-30" transform="translate(113.326836 37.545313) scale(0.7)"/>
       </g>
      </g>
     </g>
     <g id="ytick_8">
      <g id="line2d_43">
       <g>
        <use xlink:href="#m8befa72937" x="72.943637" y="204.752203" style="stroke: #000000; stroke-width: 0.8"/>
       </g>
      </g>
      <g id="text_28">
       <!-- $\mathdefault{10^{1}}$ -->
       <g transform="translate(48.783637 208.877203) scale(0.11 -0.11)">
        <use xlink:href="#Roboto-Regular-31" transform="translate(0 0.98125)"/>
        <use xlink:href="#Roboto-Regular-30" transform="translate(56.201172 0.98125)"/>
        <use xlink:href="#Roboto-Regular-31" transform="translate(113.326836 37.960938) scale(0.7)"/>
       </g>
      </g>
     </g>
     <g id="ytick_9">
      <g id="line2d_44">
       <defs>
        <path id="m7cdcf26e5a" d="M 0 0  L -2 0  " style="stroke: #000000; stroke-width: 0.6"/>
       </defs>
       <g>
        <use xlink:href="#m7cdcf26e5a" x="72.943637" y="154.860742" style="stroke: #000000; stroke-width: 0.6"/>
       </g>
      </g>
     </g>
     <g id="ytick_10">
      <g id="line2d_45">
       <g>
        <use xlink:href="#m7cdcf26e5a" x="72.943637" y="167.42988" style="stroke: #000000; stroke-width: 0.6"/>
       </g>
      </g>
     </g>
     <g id="ytick_11">
      <g id="line2d_46">
       <g>
        <use xlink:href="#m7cdcf26e5a" x="72.943637" y="176.347825" style="stroke: #000000; stroke-width: 0.6"/>
       </g>
      </g>
     </g>
     <g id="ytick_12">
      <g id="line2d_47">
       <g>
        <use xlink:href="#m7cdcf26e5a" x="72.943637" y="183.26512" style="stroke: #000000; stroke-width: 0.6"/>
       </g>
      </g>
     </g>
     <g id="ytick_13">
      <g id="line2d_48">
       <g>
        <use xlink:href="#m7cdcf26e5a" x="72.943637" y="188.916962" style="stroke: #000000; stroke-width: 0.6"/>
       </g>
      </g>
     </g>
     <g id="ytick_14">
      <g id="line2d_49">
       <g>
        <use xlink:href="#m7cdcf26e5a" x="72.943637" y="193.695526" style="stroke: #000000; stroke-width: 0.6"/>
       </g>
      </g>
     </g>
     <g id="ytick_15">
      <g id="line2d_50">
       <g>
        <use xlink:href="#m7cdcf26e5a" x="72.943637" y="197.834907" style="stroke: #000000; stroke-width: 0.6"/>
       </g>
      </g>
     </g>
     <g id="ytick_16">
      <g id="line2d_51">
       <g>
        <use xlink:href="#m7cdcf26e5a" x="72.943637" y="201.4861" style="stroke: #000000; stroke-width: 0.6"/>
       </g>
      </g>
     </g>
     <g id="ytick_17">
      <g id="line2d_52">
       <g>
        <use xlink:href="#m7cdcf26e5a" x="72.943637" y="226.239285" style="stroke: #000000; stroke-width: 0.6"/>
       </g>
      </g>
     </g>
    </g>
    <g id="line2d_53">
     <path d="M 0 0  " clip-path="url(#p8cc40117f6)" style="fill: none; stroke: #440154; stroke-width: 1.5; stroke-linecap: square"/>
    </g>
    <g id="line2d_54">
     <path d="M 122.234117 162.059933  L 127.361184 163.437907  L 127.361184 166.022679  L 132.04183 167.238494  L 132.04183 170.623597  L 136.347607 171.674521  L 136.347607 177.326363  L 144.045502 179.00241  L 144.045502 179.807632  L 147.517254 180.592466  L 147.517254 181.35792  L 150.778465 182.104927  L 150.778465 186.244308  L 153.853215 186.883492  L 153.853215 188.725577  L 156.76168 189.316058  L 156.76168 190.464311  L 159.520926 191.022872  L 159.520926 194.178065  L 162.145519 194.674065  L 162.145519 196.116153  L 164.647993 196.582317  L 164.647993 197.494127  L 167.039209 197.940168  L 167.039209 199.241029  L 169.328639 199.662795  L 167.039209 200.078899  L 167.039209 200.894718  L 169.328639 201.294714  L 169.328639 202.079549  L 171.524597 202.464638  L 171.524597 203.220756  L 175.6646 203.95887  L 175.6646 205.384377  L 177.620943 205.730741  L 177.620943 206.747203  L 175.6646 207.07875  L 175.6646 208.370574  L 177.620943 208.685291  L 177.620943 208.996844  L 179.508628 209.305298  L 179.508628 210.212659  L 181.332311 210.509305  L 181.332311 210.80314  L 184.804063 211.382583  L 184.804063 213.863852  L 186.459378 214.127677  L 186.459378 216.406203  L 189.624614 216.890577  L 189.624614 217.129955  L 191.140024 217.367498  L 191.140024 218.299879  L 192.613911 218.528657  L 192.613911 218.755759  L 194.048489 218.98121  L 194.048489 219.42725  L 195.445801 219.647887  L 195.445801 219.866964  L 196.807734 220.084504  L 196.807734 220.728112  L 198.136036 220.939712  L 198.136036 221.565982  L 196.807734 221.771958  L 196.807734 222.582443  L 195.445801 222.781797  L 195.445801 222.979876  L 196.807734 223.176698  L 196.807734 223.372277  L 200.698116 223.951721  L 200.698116 224.520531  L 201.934802 224.707839  L 201.934802 224.894021  L 203.143695 225.079092  L 203.143695 226.521181  L 200.698116 226.871459  L 200.698116 227.217824  L 201.934802 227.389565  L 201.934802 227.560361  L 207.724632 228.400502  L 207.724632 229.218473  L 205.482912 229.539712  L 205.482912 230.79238  L 204.326018 230.945463  L 204.326018 232.143653  L 203.143695 232.290222  L 199.432328 232.581298  L 199.432328 232.869666  L 204.326018 233.155376  L 209.876658 233.438476  L 209.876658 233.438476  " clip-path="url(#p8cc40117f6)" style="fill: none; stroke: #482878; stroke-width: 1.5; stroke-linecap: square"/>
    </g>
    <g id="line2d_55">
     <path d="M 84.947308 137.618301  L 84.947308 145.751412  L 94.755022 148.048708  L 94.755022 152.188088  L 103.047325 154.06741  L 103.047325 157.515327  L 110.230445 159.105384  L 110.230445 162.059933  L 116.566407 163.437907  L 116.566407 168.408418  L 122.234117 169.53579  L 122.234117 171.674521  L 127.361184 172.690983  L 127.361184 173.675171  L 132.04183 174.629071  L 132.04183 175.554492  L 136.347607 176.453086  L 136.347607 179.00241  L 140.334134 179.807632  L 140.334134 182.104927  L 144.045502 182.834357  L 144.045502 183.547016  L 147.517254 184.243659  L 147.517254 186.244308  L 150.778465 186.883492  L 150.778465 189.316058  L 153.853215 189.895501  L 153.853215 190.464311  L 156.76168 191.022872  L 156.76168 193.674001  L 159.520926 194.178065  L 159.520926 194.674065  L 162.145519 195.162253  L 162.145519 197.041574  L 164.647993 197.494127  L 164.647993 197.940168  L 167.039209 198.379882  L 167.039209 199.241029  L 169.328639 199.662795  L 169.328639 201.689615  L 167.039209 202.079549  L 167.039209 203.59201  L 169.328639 203.95887  L 169.328639 204.321439  L 171.524597 204.679817  L 171.524597 205.384377  L 173.634416 205.730741  L 173.634416 208.685291  L 175.6646 208.996844  L 175.6646 209.610712  L 177.620943 209.913147  L 177.620943 210.212659  L 179.508628 210.509305  L 179.508628 211.094215  L 181.332311 211.382583  L 181.332311 211.951394  L 183.09619 212.231932  L 183.09619 212.509955  L 184.804063 212.785506  L 184.804063 215.161083  L 186.459378 215.41414  L 186.459378 215.91414  L 188.065273 216.161147  L 188.065273 216.890577  L 186.459378 217.129955  L 186.459378 217.837194  L 191.140024 218.528657  L 191.140024 218.98121  L 189.624614 219.205032  L 189.624614 220.728112  L 191.140024 220.939712  L 191.140024 221.358628  L 192.613911 221.565982  L 192.613911 222.582443  L 194.048489 222.781797  L 194.048489 222.979876  L 195.445801 223.176698  L 195.445801 224.707839  L 196.807734 224.894021  L 196.807734 226.871459  L 198.136036 227.045125  L 198.136036 227.217824  L 199.432328 227.389565  L 201.934802 227.560361  L 201.934802 227.899155  L 199.432328 228.234285  L 199.432328 228.565832  L 201.934802 228.89387  L 201.934802 229.539712  L 200.698116 229.699092  L 200.698116 229.857657  L 201.934802 230.015414  L 201.934802 230.172373  L 204.326018 230.328541  L 204.326018 230.483927  L 205.482912 230.638537  L 205.482912 231.550347  L 203.143695 231.84842  L 203.143695 232.143653  L 206.615448 232.581298  L 206.615448 232.725817  L 201.934802 233.297249  L 201.934802 233.579063  L 201.934802 233.579063  " clip-path="url(#p8cc40117f6)" style="fill: none; stroke: #3e4989; stroke-width: 1.5; stroke-linecap: square"/>
    </g>
    <g id="line2d_56">
     <path d="M 144.045502 175.554492  L 144.045502 177.326363  L 147.517254 178.175712  L 147.517254 179.00241  L 150.778465 179.807632  L 150.778465 182.104927  L 153.853215 182.834357  L 153.853215 185.591667  L 156.76168 186.244308  L 156.76168 188.123629  L 159.520926 188.725577  L 159.520926 191.571547  L 162.145519 192.110679  L 162.145519 193.161604  L 164.647993 193.674001  L 164.647993 195.162253  L 167.039209 195.642872  L 167.039209 196.582317  L 169.328639 197.041574  L 169.328639 198.813446  L 171.524597 199.241029  L 171.524597 200.078899  L 173.634416 200.489492  L 173.634416 202.845003  L 175.6646 203.220756  L 175.6646 206.412072  L 177.620943 206.747203  L 177.620943 207.07875  L 179.508628 207.406788  L 179.508628 209.610712  L 181.332311 209.913147  L 181.332311 210.212659  L 183.09619 210.509305  L 183.09619 211.094215  L 184.804063 211.382583  L 184.804063 212.509955  L 188.065273 213.05863  L 188.065273 213.329368  L 189.624614 213.597762  L 189.624614 215.91414  L 191.140024 216.161147  L 191.140024 216.649336  L 192.613911 216.890577  L 192.613911 217.129955  L 194.048489 217.367498  L 194.048489 217.603236  L 195.445801 217.837194  L 195.445801 218.069399  L 196.807734 218.299879  L 196.807734 220.728112  L 198.136036 220.939712  L 198.136036 221.565982  L 199.432328 221.771958  L 199.432328 223.566631  L 200.698116 223.759774  L 200.698116 224.142486  L 201.934802 224.332085  L 201.934802 225.263065  L 203.143695 225.445952  L 203.143695 225.988228  L 204.326018 226.166899  L 204.326018 226.521181  L 205.482912 226.696815  L 205.482912 227.045125  L 204.326018 227.217824  L 204.326018 228.067173  L 205.482912 228.234285  L 205.482912 229.539712  L 207.724632 229.857657  L 207.724632 230.172373  L 208.811406 230.328541  L 208.811406 230.483927  L 209.876658 230.638537  L 209.876658 231.84842  L 210.921225 231.996388  L 210.921225 232.581298  L 209.876658 232.725817  L 209.876658 232.725817  " clip-path="url(#p8cc40117f6)" style="fill: none; stroke: #31688e; stroke-width: 1.5; stroke-linecap: square"/>
    </g>
    <g id="line2d_57">
     <path d="M 84.947308 140.572851  L 84.947308 143.270143  L 94.755022 145.751412  L 94.755022 148.048708  L 103.047325 150.187439  L 103.047325 152.188088  L 110.230445 154.06741  L 110.230445 155.839281  L 122.234117 159.105384  L 122.234117 167.238494  L 127.361184 168.408418  L 127.361184 171.674521  L 132.04183 172.690983  L 132.04183 174.629071  L 136.347607 175.554492  L 136.347607 177.326363  L 140.334134 178.175712  L 140.334134 179.00241  L 144.045502 179.807632  L 144.045502 180.592466  L 147.517254 181.35792  L 147.517254 182.834357  L 150.778465 183.547016  L 150.778465 186.883492  L 153.853215 187.509762  L 153.853215 189.316058  L 156.76168 189.895501  L 156.76168 192.110679  L 159.520926 192.640595  L 159.520926 195.162253  M 175.6646 206.412072  L 175.6646 207.07875  L 177.620943 207.406788  L 177.620943 208.370574  L 179.508628 208.685291  L 179.508628 210.212659  L 181.332311 210.509305  L 181.332311 211.094215  L 183.09619 211.382583  L 183.09619 214.127677  L 184.804063 214.389276  L 184.804063 214.648686  L 186.459378 214.905943  L 186.459378 215.161083  L 188.065273 215.41414  L 188.065273 215.665148  L 189.624614 215.91414  L 189.624614 217.129955  L 191.140024 217.367498  L 191.140024 218.069399  L 192.613911 218.299879  L 192.613911 219.205032  L 194.048489 219.42725  L 194.048489 220.728112  L 195.445801 220.939712  L 195.445801 222.781797  L 196.807734 222.979876  L 196.807734 223.176698  L 198.136036 223.372277  L 198.136036 225.079092  L 199.432328 225.263065  L 199.432328 225.808522  L 200.698116 225.988228  L 200.698116 226.344546  L 201.934802 226.521181  L 201.934802 228.89387  L 203.143695 229.056596  L 203.143695 229.218473  L 204.326018 229.379509  L 204.326018 230.483927  L 203.143695 230.638537  L 203.143695 230.945463  L 204.326018 231.097794  L 204.326018 231.550347  L 205.482912 231.699742  L 205.482912 231.996388  L 206.615448 232.143653  L 206.615448 232.725817  L 208.811406 233.01285  L 207.724632 233.155376  L 207.724632 233.719015  L 207.724632 233.719015  " clip-path="url(#p8cc40117f6)" style="fill: none; stroke: #26828e; stroke-width: 1.5; stroke-linecap: square"/>
    </g>
    <g id="line2d_58">
     <path d="M 103.047325 137.618301  L 103.047325 140.572851  L 116.566407 145.751412  L 116.566407 148.048708  L 122.234117 150.187439  L 122.234117 152.188088  L 127.361184 154.06741  L 127.361184 159.105384  L 132.04183 160.617845  L 132.04183 163.437907  L 136.347607 164.757226  L 136.347607 167.238494  L 140.334134 168.408418  L 140.334134 170.623597  L 144.045502 171.674521  L 144.045502 173.675171  L 147.517254 174.629071  L 147.517254 175.554492  L 150.778465 176.453086  L 150.778465 178.175712  L 153.853215 179.00241  L 153.853215 186.244308  L 156.76168 186.883492  L 156.76168 188.725577  L 159.520926 189.316058  L 159.520926 191.022872  L 162.145519 191.571547  L 162.145519 192.110679  L 164.647993 192.640595  L 164.647993 193.674001  L 167.039209 194.178065  L 167.039209 196.116153  L 169.328639 196.582317  L 169.328639 197.494127  L 171.524597 197.940168  L 171.524597 201.689615  L 173.634416 202.079549  L 173.634416 202.845003  L 177.620943 203.59201  L 177.620943 204.321439  L 179.508628 204.679817  L 179.508628 206.412072  L 181.332311 206.747203  L 181.332311 207.406788  L 183.09619 207.731391  L 181.332311 208.05263  L 181.332311 209.610712  L 183.09619 209.913147  L 183.09619 210.212659  L 184.804063 210.509305  L 184.804063 210.80314  L 186.459378 211.094215  L 186.459378 212.231932  L 188.065273 212.509955  L 188.065273 213.05863  L 189.624614 213.329368  L 189.624614 213.597762  L 191.140024 213.863852  L 191.140024 215.91414  L 192.613911 216.161147  L 192.613911 216.406203  L 194.048489 216.649336  L 194.048489 217.129955  L 195.445801 217.367498  L 195.445801 217.837194  L 196.807734 218.069399  L 196.807734 218.98121  L 194.048489 219.42725  L 194.048489 220.084504  L 196.807734 220.515057  L 196.807734 220.728112  L 198.136036 220.939712  L 198.136036 221.358628  L 200.698116 221.771958  L 200.698116 222.179849  L 199.432328 222.3818  L 199.432328 222.582443  L 198.136036 222.781797  L 198.136036 223.176698  L 199.432328 223.372277  L 199.432328 223.566631  L 200.698116 223.759774  L 200.698116 224.707839  L 201.934802 224.894021  L 201.934802 225.079092  L 203.143695 225.263065  L 203.143695 225.627767  L 204.326018 225.808522  L 204.326018 226.166899  L 203.143695 226.344546  L 203.143695 226.871459  L 204.326018 227.045125  L 204.326018 227.217824  L 205.482912 227.389565  L 205.482912 227.899155  L 203.143695 228.234285  L 203.143695 228.730285  L 206.615448 229.218473  L 206.615448 229.539712  L 207.724632 229.699092  L 207.724632 230.638537  L 208.811406 230.79238  L 208.811406 230.945463  L 209.876658 231.097794  L 208.811406 231.249381  L 208.811406 231.400229  L 207.724632 231.550347  L 207.724632 232.869666  L 206.615448 233.01285  L 206.615448 233.297249  L 208.811406 233.579063  L 208.811406 233.579063  " clip-path="url(#p8cc40117f6)" style="fill: none; stroke: #1f9e89; stroke-width: 1.5; stroke-linecap: square"/>
    </g>
    <g id="line2d_59">
     <path d="M 94.755022 137.618301  L 103.047325 140.572851  L 103.047325 143.270143  L 110.230445 145.751412  L 110.230445 150.187439  L 116.566407 152.188088  L 116.566407 154.06741  L 122.234117 155.839281  L 122.234117 157.515327  L 127.361184 159.105384  L 127.361184 162.059933  L 132.04183 163.437907  L 132.04183 166.022679  L 136.347607 167.238494  L 136.347607 170.623597  L 140.334134 171.674521  L 140.334134 173.675171  L 144.045502 174.629071  L 144.045502 175.554492  L 147.517254 176.453086  L 147.517254 177.326363  L 150.778465 178.175712  L 150.778465 179.00241  L 153.853215 179.807632  L 153.853215 184.243659  L 156.76168 184.92499  L 156.76168 186.244308  L 159.520926 186.883492  L 159.520926 188.123629  L 162.145519 188.725577  L 162.145519 192.110679  L 164.647993 192.640595  L 164.647993 193.674001  L 167.039209 194.178065  L 167.039209 195.162253  L 169.328639 195.642872  L 169.328639 196.582317  L 171.524597 197.041574  L 171.524597 198.379882  L 173.634416 198.813446  L 173.634416 202.845003  L 175.6646 203.220756  L 175.6646 203.95887  L 177.620943 204.321439  L 177.620943 207.731391  L 179.508628 208.05263  L 179.508628 208.370574  L 181.332311 208.685291  L 181.332311 209.610712  L 183.09619 209.913147  L 183.09619 211.951394  L 184.804063 212.231932  L 184.804063 213.597762  L 186.459378 213.863852  L 186.459378 214.389276  L 188.065273 214.648686  L 188.065273 215.91414  L 189.624614 216.161147  L 189.624614 216.890577  L 191.140024 217.129955  L 191.140024 218.299879  L 192.613911 218.528657  L 192.613911 218.755759  L 194.048489 218.98121  L 194.048489 219.205032  L 195.445801 219.42725  L 195.445801 220.084504  L 194.048489 220.300528  L 194.048489 220.515057  L 192.613911 220.728112  L 192.613911 221.149877  L 194.048489 221.358628  L 194.048489 221.771958  L 196.807734 222.179849  L 196.807734 222.582443  L 198.136036 222.781797  L 198.136036 224.142486  L 199.432328 224.332085  L 199.432328 224.707839  L 201.934802 225.079092  L 201.934802 227.730221  L 203.143695 227.899155  L 203.143695 228.234285  L 204.326018 228.400502  L 204.326018 229.056596  L 201.934802 229.379509  L 201.934802 229.857657  L 203.143695 230.015414  L 206.615448 230.328541  L 208.811406 230.638537  L 208.811406 231.249381  L 207.724632 231.400229  L 207.724632 231.996388  L 208.811406 232.143653  L 208.811406 232.436102  L 204.326018 233.01285  L 204.326018 233.438476  L 204.326018 233.438476  " clip-path="url(#p8cc40117f6)" style="fill: none; stroke: #35b779; stroke-width: 1.5; stroke-linecap: square"/>
    </g>
    <g id="line2d_60">
     <path d="M 110.230445 137.618301  L 110.230445 140.572851  L 122.234117 145.751412  L 127.361184 148.048708  L 127.361184 152.188088  L 132.04183 154.06741  L 132.04183 157.515327  L 136.347607 159.105384  L 136.347607 160.617845  L 140.334134 162.059933  L 140.334134 164.757226  L 144.045502 166.022679  L 144.045502 167.238494  L 147.517254 168.408418  L 147.517254 171.674521  L 150.778465 172.690983  L 150.778465 173.675171  L 153.853215 174.629071  L 153.853215 179.00241  L 156.76168 179.807632  L 156.76168 181.35792  L 159.520926 182.104927  L 159.520926 184.243659  L 162.145519 184.92499  L 162.145519 186.883492  L 164.647993 187.509762  L 164.647993 191.022872  L 167.039209 191.571547  L 167.039209 192.640595  L 169.328639 193.161604  L 169.328639 195.642872  L 171.524597 196.116153  L 171.524597 197.041574  L 173.634416 197.494127  L 173.634416 197.940168  L 175.6646 198.379882  L 175.6646 198.813446  L 177.620943 199.241029  L 177.620943 201.689615  L 179.508628 202.079549  L 179.508628 202.845003  L 183.09619 203.59201  L 183.09619 205.730741  L 184.804063 206.073278  L 184.804063 208.685291  L 186.459378 208.996844  L 186.459378 209.305298  L 189.624614 209.913147  L 189.624614 210.212659  L 191.140024 210.509305  L 191.140024 211.382583  L 189.624614 211.668293  L 189.624614 212.509955  L 191.140024 212.785506  L 191.140024 213.05863  L 192.613911 213.329368  L 192.613911 213.597762  L 194.048489 213.863852  L 194.048489 214.905943  L 192.613911 215.161083  L 192.613911 215.91414  L 195.445801 216.406203  L 195.445801 216.649336  L 196.807734 216.890577  L 196.807734 217.129955  L 198.136036 217.367498  L 196.807734 217.603236  L 196.807734 217.837194  L 195.445801 218.069399  L 195.445801 218.299879  L 196.807734 218.528657  L 196.807734 218.755759  L 198.136036 218.98121  L 198.136036 219.205032  L 199.432328 219.42725  L 199.432328 219.647887  L 200.698116 219.866964  L 200.698116 220.515057  L 201.934802 220.728112  L 201.934802 222.979876  L 203.143695 223.176698  L 203.143695 223.372277  L 204.326018 223.566631  L 204.326018 224.142486  L 205.482912 224.332085  L 205.482912 224.894021  L 206.615448 225.079092  L 206.615448 225.263065  L 207.724632 225.445952  L 207.724632 225.627767  L 208.811406 225.808522  L 208.811406 226.871459  L 209.876658 227.045125  L 209.876658 227.389565  L 210.921225 227.560361  L 210.921225 230.172373  L 209.876658 230.328541  L 209.876658 230.638537  L 208.811406 230.79238  L 208.811406 230.945463  L 207.724632 231.097794  L 207.724632 231.550347  L 208.811406 231.699742  L 208.811406 231.84842  L 210.921225 232.143653  L 212.951409 232.290222  L 212.951409 232.725817  L 211.945894 232.869666  L 211.945894 233.297249  L 212.951409 233.438476  L 212.951409 233.438476  " clip-path="url(#p8cc40117f6)" style="fill: none; stroke: #6ece58; stroke-width: 1.5; stroke-linecap: square"/>
    </g>
    <g id="line2d_61">
     <path d="M 159.520926 186.883492  L 162.145519 187.509762  L 162.145519 188.725577  L 167.039209 189.895501  L 167.039209 194.178065  L 169.328639 194.674065  L 169.328639 195.642872  L 171.524597 196.116153  L 171.524597 196.582317  L 173.634416 197.041574  L 173.634416 200.489492  L 177.620943 201.294714  L 177.620943 201.689615  L 179.508628 202.079549  L 179.508628 202.845003  L 177.620943 203.220756  L 177.620943 203.95887  L 179.508628 204.321439  L 179.508628 205.384377  L 181.332311 205.730741  L 181.332311 206.073278  L 183.09619 206.412072  L 183.09619 206.747203  L 184.804063 207.07875  L 184.804063 208.370574  L 183.09619 208.685291  L 183.09619 209.610712  L 184.804063 209.913147  L 184.804063 210.509305  L 188.065273 211.094215  L 188.065273 211.382583  L 189.624614 211.668293  L 189.624614 212.231932  L 191.140024 212.509955  L 191.140024 215.91414  L 192.613911 216.161147  L 192.613911 216.890577  L 196.807734 217.603236  L 196.807734 217.837194  L 198.136036 218.069399  L 198.136036 218.528657  L 196.807734 218.755759  L 196.807734 222.179849  L 198.136036 222.3818  L 198.136036 223.372277  L 199.432328 223.566631  L 199.432328 223.759774  L 200.698116 223.951721  L 200.698116 224.142486  L 203.143695 224.520531  L 203.143695 224.707839  L 204.326018 224.894021  L 204.326018 225.079092  L 205.482912 225.263065  L 204.326018 225.445952  L 204.326018 225.627767  L 203.143695 225.808522  L 203.143695 226.344546  L 204.326018 226.521181  L 204.326018 227.730221  L 203.143695 227.899155  L 204.326018 228.067173  L 204.326018 228.400502  L 205.482912 228.565832  L 205.482912 228.730285  L 207.724632 229.056596  L 207.724632 229.379509  L 208.811406 229.539712  L 208.811406 230.328541  L 209.876658 230.483927  L 209.876658 230.79238  L 210.921225 230.945463  L 210.921225 231.097794  L 208.811406 231.400229  L 208.811406 231.84842  L 209.876658 231.996388  L 209.876658 232.143653  L 210.921225 232.290222  L 210.921225 233.01285  L 209.876658 233.155376  L 209.876658 233.297249  L 208.811406 233.438476  L 208.811406 233.579063  L 208.811406 233.579063  " clip-path="url(#p8cc40117f6)" style="fill: none; stroke: #b5de2b; stroke-width: 1.5; stroke-linecap: square"/>
    </g>
    <g id="line2d_62">
     <path d="M 72.816057 118.732586  L 74.442555 120.093286  L 76.069054 121.453986  L 77.695552 122.814686  L 79.32205 124.175386  L 80.948548 125.536086  L 82.575047 126.896786  L 84.201545 128.257486  L 85.828043 129.618186  L 87.454541 130.978886  L 89.08104 132.339585  L 90.707538 133.700285  L 92.334036 135.060985  L 93.960534 136.421685  L 95.587033 137.782385  L 97.213531 139.143085  L 98.840029 140.503785  L 100.466528 141.864485  L 102.093026 143.225185  L 103.719524 144.585885  L 105.346022 145.946585  L 106.972521 147.307284  L 108.599019 148.667984  L 110.225517 150.028684  L 111.852015 151.389384  L 113.478514 152.750084  L 115.105012 154.110784  L 116.73151 155.471484  L 118.358008 156.832184  L 119.984507 158.192884  L 121.611005 159.553584  L 123.237503 160.914284  L 124.864001 162.274984  L 126.4905 163.635683  L 128.116998 164.996383  L 129.743496 166.357083  L 131.369994 167.717783  L 132.996493 169.078483  L 134.622991 170.439183  L 136.249489 171.799883  L 137.875987 173.160583  L 139.502486 174.521283  L 141.128984 175.881983  L 142.755482 177.242683  L 144.38198 178.603383  L 146.008479 179.964082  L 147.634977 181.324782  L 149.261475 182.685482  L 150.887973 184.046182  L 152.514472 185.406882  L 154.14097 186.767582  L 155.767468 188.128282  L 157.393966 189.488982  L 159.020465 190.849682  L 160.646963 192.210382  L 162.273461 193.571082  L 163.899959 194.931781  L 165.526458 196.292481  L 167.152956 197.653181  L 168.779454 199.013881  L 170.405952 200.374581  L 172.032451 201.735281  L 173.658949 203.095981  L 175.285447 204.456681  L 176.911945 205.817381  L 178.538444 207.178081  L 180.164942 208.538781  L 181.79144 209.899481  L 183.417938 211.26018  L 185.044437 212.62088  L 186.670935 213.98158  L 188.297433 215.34228  L 189.923931 216.70298  L 191.55043 218.06368  L 193.176928 219.42438  L 194.803426 220.78508  L 196.429924 222.14578  L 198.056423 223.50648  L 199.682921 224.86718  L 201.309419 226.22788  L 202.935917 227.588579  L 204.562416 228.949279  L 206.188914 230.309979  L 207.815412 231.670679  L 209.44191 233.031379  L 211.068409 234.392079  L 212.694907 235.752779  L 214.321405 237.113479  L 215.947904 238.474179  L 217.574402 239.834879  L 219.2009 241.195579  L 220.827398 242.556279  L 222.453897 243.916978  L 224.080395 245.277678  L 225.706893 246.638378  L 227.333391 247.999078  L 228.95989 249.359778  L 230.586388 250.720478  L 232.212886 252.081178  L 233.839384 253.441878  " clip-path="url(#p8cc40117f6)" style="fill: none; stroke: #ff7f0e; stroke-width: 1.5; stroke-linecap: square"/>
    </g>
    <g id="line2d_63">
     <path d="M 72.816057 135.106436  L 74.442555 136.04373  L 76.069054 136.981024  L 77.695552 137.918318  L 79.32205 138.855612  L 80.948548 139.792906  L 82.575047 140.7302  L 84.201545 141.667494  L 85.828043 142.604788  L 87.454541 143.542082  L 89.08104 144.479376  L 90.707538 145.41667  L 92.334036 146.353964  L 93.960534 147.291258  L 95.587033 148.228552  L 97.213531 149.165846  L 98.840029 150.10314  L 100.466528 151.040434  L 102.093026 151.977728  L 103.719524 152.915022  L 105.346022 153.852316  L 106.972521 154.78961  L 108.599019 155.726904  L 110.225517 156.664198  L 111.852015 157.601492  L 113.478514 158.538786  L 115.105012 159.47608  L 116.73151 160.413374  L 118.358008 161.350668  L 119.984507 162.287962  L 121.611005 163.225256  L 123.237503 164.16255  L 124.864001 165.099844  L 126.4905 166.037138  L 128.116998 166.974432  L 129.743496 167.911726  L 131.369994 168.84902  L 132.996493 169.786314  L 134.622991 170.723608  L 136.249489 171.660902  L 137.875987 172.598196  L 139.502486 173.53549  L 141.128984 174.472784  L 142.755482 175.410078  L 144.38198 176.347372  L 146.008479 177.284666  L 147.634977 178.22196  L 149.261475 179.159254  L 150.887973 180.096548  L 152.514472 181.033842  L 154.14097 181.971136  L 155.767468 182.90843  L 157.393966 183.845724  L 159.020465 184.783018  L 160.646963 185.720312  L 162.273461 186.657606  L 163.899959 187.5949  L 165.526458 188.532194  L 167.152956 189.469488  L 168.779454 190.406782  L 170.405952 191.344076  L 172.032451 192.28137  L 173.658949 193.218664  L 175.285447 194.155958  L 176.911945 195.093252  L 178.538444 196.030546  L 180.164942 196.96784  L 181.79144 197.905134  L 183.417938 198.842428  L 185.044437 199.779722  L 186.670935 200.717016  L 188.297433 201.65431  L 189.923931 202.591604  L 191.55043 203.528898  L 193.176928 204.466192  L 194.803426 205.403486  L 196.429924 206.34078  L 198.056423 207.278074  L 199.682921 208.215368  L 201.309419 209.152662  L 202.935917 210.089956  L 204.562416 211.02725  L 206.188914 211.964544  L 207.815412 212.901838  L 209.44191 213.839132  L 211.068409 214.776426  L 212.694907 215.71372  L 214.321405 216.651014  L 215.947904 217.588308  L 217.574402 218.525602  L 219.2009 219.462896  L 220.827398 220.40019  L 222.453897 221.337484  L 224.080395 222.274778  L 225.706893 223.212072  L 227.333391 224.149366  L 228.95989 225.08666  L 230.586388 226.023954  L 232.212886 226.961248  L 233.839384 227.898542  " clip-path="url(#p8cc40117f6)" style="fill: none; stroke-dasharray: 5.55,2.4; stroke-dashoffset: 0; stroke: #ff7f0e; stroke-width: 1.5"/>
    </g>
    <g id="patch_9">
     <path d="M 72.943637 234.372396  L 72.943637 133.37366  " style="fill: none; stroke: #000000; stroke-width: 0.8; stroke-linejoin: miter; stroke-linecap: square"/>
    </g>
    <g id="patch_10">
     <path d="M 213.938473 234.372396  L 213.938473 133.37366  " style="fill: none; stroke: #000000; stroke-width: 0.8; stroke-linejoin: miter; stroke-linecap: square"/>
    </g>
    <g id="patch_11">
     <path d="M 72.943637 234.372396  L 213.938473 234.372396  " style="fill: none; stroke: #000000; stroke-width: 0.8; stroke-linejoin: miter; stroke-linecap: square"/>
    </g>
    <g id="patch_12">
     <path d="M 72.943637 133.37366  L 213.938473 133.37366  " style="fill: none; stroke: #000000; stroke-width: 0.8; stroke-linejoin: miter; stroke-linecap: square"/>
    </g>
   </g>
   <g id="legend_2">
    <g id="patch_13">
     <path d="M 306.082019 120.798755  L 383.182019 120.798755  Q 385.182019 120.798755 385.182019 118.798755  L 385.182019 90.736255  Q 385.182019 88.736255 383.182019 88.736255  L 306.082019 88.736255  Q 304.082019 88.736255 304.082019 90.736255  L 304.082019 118.798755  Q 304.082019 120.798755 306.082019 120.798755  z " style="fill: #ffffff; opacity: 0.8; stroke: #cccccc; stroke-linejoin: miter"/>
    </g>
    <g id="line2d_64">
     <path d="M 308.082019 96.736255  L 318.082019 96.736255  L 328.082019 96.736255  " style="fill: none; stroke: #ff7f0e; stroke-width: 1.5; stroke-linecap: square"/>
    </g>
    <g id="text_29">
     <!-- $d = 0.01 t^{1.5}$ -->
     <g transform="translate(336.082019 100.236255) scale(0.1 -0.1)">
      <defs>
       <path id="STIXGeneral-Regular-3d" d="M 4077 2048  L 307 2048  L 307 2470  L 4077 2470  L 4077 2048  z M 4077 768  L 307 768  L 307 1190  L 4077 1190  L 4077 768  z " transform="scale(0.015625)"/>
       <path id="STIXGeneral-Regular-30" d="M 3046 2112  Q 3046 1683 2963 1302  Q 2880 922 2717 602  Q 2554 282 2266 96  Q 1978 -90 1600 -90  Q 1210 -90 915 108  Q 621 307 461 640  Q 301 973 227 1350  Q 154 1728 154 2150  Q 154 2746 301 3222  Q 448 3699 790 4012  Q 1133 4326 1626 4326  Q 2253 4326 2649 3712  Q 3046 3098 3046 2112  z M 2432 2080  Q 2432 3091 2217 3625  Q 2003 4160 1587 4160  Q 1190 4160 979 3622  Q 768 3085 768 2106  Q 768 1120 979 598  Q 1190 77 1600 77  Q 2003 77 2217 598  Q 2432 1120 2432 2080  z " transform="scale(0.015625)"/>
       <path id="STIXGeneral-Regular-2e" d="M 1158 275  Q 1158 134 1052 32  Q 947 -70 800 -70  Q 653 -70 550 32  Q 448 134 448 281  Q 448 429 553 534  Q 659 640 806 640  Q 947 640 1052 531  Q 1158 422 1158 275  z " transform="scale(0.015625)"/>
      </defs>
      <use xlink:href="#STIXGeneral-Italic-64" transform="translate(0 0.567188)"/>
      <use xlink:href="#STIXGeneral-Regular-3d" transform="translate(64.439981 0.567188)"/>
      <use xlink:href="#STIXGeneral-Regular-30" transform="translate(147.379962 0.567188)"/>
      <use xlink:href="#STIXGeneral-Regular-2e" transform="translate(197.379947 0.567188)"/>
      <use xlink:href="#STIXGeneral-Regular-30" transform="translate(222.379932 0.567188)"/>
      <use xlink:href="#STIXGeneral-Regular-31" transform="translate(272.379916 0.567188)"/>
      <use xlink:href="#STIXGeneral-Italic-74" transform="translate(322.379901 0.567188)"/>
      <use xlink:href="#STIXGeneral-Regular-31" transform="translate(358.558014 35.842188) scale(0.7)"/>
      <use xlink:href="#STIXGeneral-Regular-2e" transform="translate(393.558003 35.842188) scale(0.7)"/>
      <use xlink:href="#STIXGeneral-Regular-35" transform="translate(411.057993 35.842188) scale(0.7)"/>
     </g>
    </g>
    <g id="line2d_65">
     <path d="M 308.082019 111.267505  L 318.082019 111.267505  L 328.082019 111.267505  " style="fill: none; stroke-dasharray: 5.55,2.4; stroke-dashoffset: 0; stroke: #ff7f0e; stroke-width: 1.5"/>
    </g>
    <g id="text_30">
     <!-- $d = w_{\rm s} t$ -->
     <g transform="translate(336.082019 114.767505) scale(0.1 -0.1)">
      <defs>
       <path id="STIXGeneral-Italic-77" d="M 2579 2726  L 2784 474  Q 3418 1261 3629 1597  Q 3840 1933 3840 2138  Q 3840 2227 3699 2362  Q 3565 2490 3565 2624  Q 3565 2701 3638 2761  Q 3712 2822 3814 2822  Q 3955 2822 4051 2720  Q 4147 2618 4147 2464  Q 4147 1882 2790 230  L 2733 160  Q 2509 -115 2445 -115  Q 2394 -115 2374 109  L 2189 2093  L 1619 1120  Q 1472 877 1267 486  Q 954 -115 858 -115  Q 813 -115 800 -57  Q 787 0 774 186  L 749 768  Q 698 1818 576 2317  Q 531 2490 476 2538  Q 422 2586 275 2586  L 96 2586  L 96 2669  Q 602 2752 704 2778  Q 736 2784 777 2797  Q 819 2810 844 2816  Q 870 2822 890 2822  Q 941 2822 960 2790  Q 979 2758 1011 2605  Q 1171 1837 1216 806  L 2445 2752  Q 2483 2816 2528 2816  Q 2579 2816 2579 2726  z " transform="scale(0.015625)"/>
       <path id="STIXGeneral-Regular-73" d="M 998 1926  L 1664 1523  Q 1984 1331 2105 1164  Q 2227 998 2227 736  Q 2227 416 1961 176  Q 1696 -64 1331 -64  Q 1030 -64 864 -6  Q 691 51 570 51  Q 461 51 416 -26  L 333 -26  L 333 979  L 435 979  Q 538 512 730 294  Q 922 77 1248 77  Q 1485 77 1632 211  Q 1779 346 1779 550  Q 1779 845 1440 1030  L 1094 1222  Q 326 1651 326 2150  Q 326 2522 566 2730  Q 806 2938 1210 2938  Q 1491 2938 1638 2867  Q 1754 2816 1818 2816  Q 1862 2816 1920 2880  L 1990 2880  L 2022 2010  L 1926 2010  Q 1818 2445 1654 2621  Q 1491 2797 1203 2797  Q 986 2797 854 2688  Q 723 2579 723 2362  Q 723 2253 796 2128  Q 870 2003 998 1926  z " transform="scale(0.015625)"/>
      </defs>
      <use xlink:href="#STIXGeneral-Italic-64" transform="translate(0 0.703125)"/>
      <use xlink:href="#STIXGeneral-Regular-3d" transform="translate(64.439981 0.703125)"/>
      <use xlink:href="#STIXGeneral-Italic-77" transform="translate(147.379962 0.703125)"/>
      <use xlink:href="#STIXGeneral-Regular-73" transform="translate(214.079959 -12.525) scale(0.7)"/>
      <use xlink:href="#STIXGeneral-Italic-74" transform="translate(245.71933 0.703125)"/>
     </g>
    </g>
   </g>
  </g>
 </g>
 <defs>
  <clipPath id="p352a154e23">
   <rect x="37.694928" y="7.12524" width="352.487092" height="252.496839"/>
  </clipPath>
  <clipPath id="p8cc40117f6">
   <rect x="72.943637" y="133.37366" width="140.994837" height="100.998736"/>
  </clipPath>
 </defs>
</svg>
