<?xml version='1.0' encoding='ASCII' standalone='yes'?>
<svg xmlns:xlink="http://www.w3.org/1999/xlink" xmlns="http://www.w3.org/2000/svg" width="786.364518pt" height="589.773388pt" viewBox="0 0 393.182259 294.886694" version="1.1">
 <metadata>
  <rdf:RDF xmlns:dc="http://purl.org/dc/elements/1.1/" xmlns:cc="http://creativecommons.org/ns#" xmlns:rdf="http://www.w3.org/1999/02/22-rdf-syntax-ns#">
   <cc:Work>
    <dc:type rdf:resource="http://purl.org/dc/dcmitype/StillImage"/>
    <dc:date>2024-03-29T18:32:16.035083</dc:date>
    <dc:format>image/svg+xml</dc:format>
    <dc:creator>
     <cc:Agent>
      <dc:title>Matplotlib v3.8.2, https://matplotlib.org/</dc:title>
     </cc:Agent>
    </dc:creator>
   </cc:Work>
  </rdf:RDF>
 </metadata>
 <defs>
  <style type="text/css">*{stroke-linejoin: round; stroke-linecap: butt}</style>
 </defs>
 <g id="figure_1">
  <g id="patch_1">
   <path d="M 0 294.886694  L 393.182259 294.886694  L 393.182259 0  L 0 0  z " style="fill: #ffffff"/>
  </g>
  <g id="axes_1">
   <g id="patch_2">
    <path d="M 42.332115 259.788798  L 390.182019 259.788798  L 390.182019 3.00024  L 42.332115 3.00024  z " style="fill: #ffffff"/>
   </g>
   <g id="matplotlib.axis_1">
    <g id="xtick_1">
     <g id="line2d_1">
      <defs>
       <path id="m8626007c5f" d="M 0 0  L 0 3.5  " style="stroke: #000000; stroke-width: 0.8"/>
      </defs>
      <g>
       <use xlink:href="#m8626007c5f" x="52.510744" y="259.788798" style="stroke: #000000; stroke-width: 0.8"/>
      </g>
     </g>
     <g id="text_1">
      <!-- $\mathdefault{10^{1}}$ -->
      <g transform="translate(43.930744 275.038798) scale(0.11 -0.11)">
       <defs>
        <path id="Roboto-Regular-31" d="M 2278 4575  L 2278 0  L 1700 0  L 1700 3853  L 534 3428  L 534 3950  L 2188 4575  L 2278 4575  z " transform="scale(0.015625)"/>
        <path id="Roboto-Regular-30" d="M 3234 1944  Q 3234 825 2848 381  Q 2463 -63 1800 -63  Q 1156 -63 764 368  Q 372 800 359 1872  L 359 2638  Q 359 3753 750 4183  Q 1141 4613 1794 4613  Q 2447 4613 2834 4195  Q 3222 3778 3234 2709  L 3234 1944  z M 2653 2734  Q 2653 3503 2434 3822  Q 2216 4141 1794 4141  Q 1388 4141 1167 3831  Q 947 3522 941 2778  L 941 1850  Q 941 1088 1164 750  Q 1388 413 1800 413  Q 2222 413 2436 745  Q 2650 1078 2653 1825  L 2653 2734  z " transform="scale(0.015625)"/>
       </defs>
       <use xlink:href="#Roboto-Regular-31" transform="translate(0 0.98125)"/>
       <use xlink:href="#Roboto-Regular-30" transform="translate(56.201172 0.98125)"/>
       <use xlink:href="#Roboto-Regular-31" transform="translate(113.326836 37.960938) scale(0.7)"/>
      </g>
     </g>
    </g>
    <g id="xtick_2">
     <g id="line2d_2">
      <g>
       <use xlink:href="#m8626007c5f" x="274.958014" y="259.788798" style="stroke: #000000; stroke-width: 0.8"/>
      </g>
     </g>
     <g id="text_2">
      <!-- $\mathdefault{10^{2}}$ -->
      <g transform="translate(266.378014 275.038798) scale(0.11 -0.11)">
       <defs>
        <path id="Roboto-Regular-32" d="M 3359 475  L 3359 0  L 381 0  L 381 416  L 1925 2134  Q 2306 2566 2439 2819  Q 2572 3072 2572 3328  Q 2572 3663 2364 3900  Q 2156 4138 1778 4138  Q 1322 4138 1097 3878  Q 872 3619 872 3213  L 294 3213  Q 294 3788 672 4200  Q 1050 4613 1778 4613  Q 2422 4613 2786 4278  Q 3150 3944 3150 3397  Q 3150 2997 2903 2592  Q 2656 2188 2297 1797  L 1078 475  L 3359 475  z " transform="scale(0.015625)"/>
       </defs>
       <use xlink:href="#Roboto-Regular-31" transform="translate(0 0.565625)"/>
       <use xlink:href="#Roboto-Regular-30" transform="translate(56.201172 0.565625)"/>
       <use xlink:href="#Roboto-Regular-32" transform="translate(113.326836 37.545313) scale(0.7)"/>
      </g>
     </g>
    </g>
    <g id="xtick_3">
     <g id="line2d_3">
      <defs>
       <path id="mf2dc84a029" d="M 0 0  L 0 2  " style="stroke: #000000; stroke-width: 0.6"/>
      </defs>
      <g>
       <use xlink:href="#mf2dc84a029" x="42.332115" y="259.788798" style="stroke: #000000; stroke-width: 0.6"/>
      </g>
     </g>
    </g>
    <g id="xtick_4">
     <g id="line2d_4">
      <g>
       <use xlink:href="#mf2dc84a029" x="119.474045" y="259.788798" style="stroke: #000000; stroke-width: 0.6"/>
      </g>
     </g>
    </g>
    <g id="xtick_5">
     <g id="line2d_5">
      <g>
       <use xlink:href="#mf2dc84a029" x="158.645065" y="259.788798" style="stroke: #000000; stroke-width: 0.6"/>
      </g>
     </g>
    </g>
    <g id="xtick_6">
     <g id="line2d_6">
      <g>
       <use xlink:href="#mf2dc84a029" x="186.437346" y="259.788798" style="stroke: #000000; stroke-width: 0.6"/>
      </g>
     </g>
    </g>
    <g id="xtick_7">
     <g id="line2d_7">
      <g>
       <use xlink:href="#mf2dc84a029" x="207.994713" y="259.788798" style="stroke: #000000; stroke-width: 0.6"/>
      </g>
     </g>
    </g>
    <g id="xtick_8">
     <g id="line2d_8">
      <g>
       <use xlink:href="#mf2dc84a029" x="225.608365" y="259.788798" style="stroke: #000000; stroke-width: 0.6"/>
      </g>
     </g>
    </g>
    <g id="xtick_9">
     <g id="line2d_9">
      <g>
       <use xlink:href="#mf2dc84a029" x="240.500496" y="259.788798" style="stroke: #000000; stroke-width: 0.6"/>
      </g>
     </g>
    </g>
    <g id="xtick_10">
     <g id="line2d_10">
      <g>
       <use xlink:href="#mf2dc84a029" x="253.400646" y="259.788798" style="stroke: #000000; stroke-width: 0.6"/>
      </g>
     </g>
    </g>
    <g id="xtick_11">
     <g id="line2d_11">
      <g>
       <use xlink:href="#mf2dc84a029" x="264.779385" y="259.788798" style="stroke: #000000; stroke-width: 0.6"/>
      </g>
     </g>
    </g>
    <g id="xtick_12">
     <g id="line2d_12">
      <g>
       <use xlink:href="#mf2dc84a029" x="341.921315" y="259.788798" style="stroke: #000000; stroke-width: 0.6"/>
      </g>
     </g>
    </g>
    <g id="xtick_13">
     <g id="line2d_13">
      <g>
       <use xlink:href="#mf2dc84a029" x="381.092335" y="259.788798" style="stroke: #000000; stroke-width: 0.6"/>
      </g>
     </g>
    </g>
    <g id="text_3">
     <!-- Time [s] -->
     <g transform="translate(196.777614 289.652079) scale(0.11 -0.11)">
      <defs>
       <path id="Roboto-Regular-54" d="M 156 4056  L 156 4550  L 3672 4550  L 3672 4056  L 2209 4056  L 2209 0  L 1616 0  L 1616 4056  L 156 4056  z " transform="scale(0.015625)"/>
       <path id="Roboto-Regular-69" d="M 444 4278  Q 444 4419 530 4516  Q 616 4613 784 4613  Q 950 4613 1039 4516  Q 1128 4419 1128 4278  Q 1128 4144 1039 4048  Q 950 3953 784 3953  Q 616 3953 530 4048  Q 444 4144 444 4278  z M 1069 3381  L 1069 0  L 488 0  L 488 3381  L 1069 3381  z " transform="scale(0.015625)"/>
       <path id="Roboto-Regular-6d" d="M 1794 2956  Q 1225 2956 1016 2478  L 1016 0  L 434 0  L 434 3381  L 984 3381  L 1000 3013  Q 1366 3444 2000 3444  Q 2325 3444 2579 3314  Q 2834 3184 2969 2900  Q 3138 3144 3408 3294  Q 3678 3444 4044 3444  Q 4588 3444 4883 3153  Q 5178 2863 5178 2222  L 5178 0  L 4597 0  L 4597 2228  Q 4597 2653 4401 2804  Q 4206 2956 3875 2956  Q 3525 2956 3325 2748  Q 3125 2541 3094 2244  L 3094 0  L 2516 0  L 2516 2225  Q 2516 2622 2319 2789  Q 2122 2956 1794 2956  z " transform="scale(0.015625)"/>
       <path id="Roboto-Regular-65" d="M 3116 591  Q 2950 341 2647 139  Q 2344 -63 1844 -63  Q 1138 -63 714 396  Q 291 856 291 1572  L 291 1703  Q 291 2256 502 2645  Q 713 3034 1050 3239  Q 1388 3444 1769 3444  Q 2494 3444 2826 2970  Q 3159 2497 3159 1788  L 3159 1528  L 872 1528  Q 884 1063 1148 736  Q 1413 409 1875 409  Q 2181 409 2393 534  Q 2606 659 2766 869  L 3116 591  z M 1769 2969  Q 1425 2969 1187 2719  Q 950 2469 891 2000  L 2581 2000  L 2581 2044  Q 2559 2381 2386 2675  Q 2213 2969 1769 2969  z " transform="scale(0.015625)"/>
       <path id="Roboto-Regular-20" transform="scale(0.015625)"/>
       <path id="Roboto-Regular-5b" d="M 1634 5200  L 1634 4725  L 1038 4725  L 1038 -500  L 1634 -500  L 1634 -975  L 459 -975  L 459 5200  L 1634 5200  z " transform="scale(0.015625)"/>
       <path id="Roboto-Regular-73" d="M 2409 897  Q 2409 1081 2273 1229  Q 2138 1378 1647 1478  Q 1081 1594 747 1814  Q 413 2034 413 2456  Q 413 2856 755 3150  Q 1097 3444 1666 3444  Q 2272 3444 2612 3134  Q 2953 2825 2953 2388  L 2375 2388  Q 2375 2597 2190 2783  Q 2006 2969 1666 2969  Q 1306 2969 1150 2812  Q 994 2656 994 2472  Q 994 2288 1139 2173  Q 1284 2059 1756 1953  Q 2378 1813 2683 1584  Q 2988 1356 2988 941  Q 2988 494 2630 215  Q 2272 -63 1681 -63  Q 1009 -63 653 281  Q 297 625 297 1044  L 878 1044  Q 897 684 1155 548  Q 1413 413 1681 413  Q 2034 413 2221 550  Q 2409 688 2409 897  z " transform="scale(0.015625)"/>
       <path id="Roboto-Regular-5d" d="M 31 4725  L 31 5200  L 1213 5200  L 1213 -975  L 31 -975  L 31 -500  L 631 -500  L 631 4725  L 31 4725  z " transform="scale(0.015625)"/>
      </defs>
      <use xlink:href="#Roboto-Regular-54"/>
      <use xlink:href="#Roboto-Regular-69" x="59.667969"/>
      <use xlink:href="#Roboto-Regular-6d" x="83.984375"/>
      <use xlink:href="#Roboto-Regular-65" x="171.679688"/>
      <use xlink:href="#Roboto-Regular-20" x="224.707031"/>
      <use xlink:href="#Roboto-Regular-5b" x="249.511719"/>
      <use xlink:href="#Roboto-Regular-73" x="276.025391"/>
      <use xlink:href="#Roboto-Regular-5d" x="327.636719"/>
     </g>
    </g>
   </g>
   <g id="matplotlib.axis_2">
    <g id="ytick_1">
     <g id="line2d_14">
      <defs>
       <path id="m9b9c253221" d="M 0 0  L -3.5 0  " style="stroke: #000000; stroke-width: 0.8"/>
      </defs>
      <g>
       <use xlink:href="#m9b9c253221" x="42.332115" y="44.396589" style="stroke: #000000; stroke-width: 0.8"/>
      </g>
     </g>
     <g id="text_4">
      <!-- $\mathdefault{10^{0}}$ -->
      <g transform="translate(18.172115 48.521589) scale(0.11 -0.11)">
       <use xlink:href="#Roboto-Regular-31" transform="translate(0 0.565625)"/>
       <use xlink:href="#Roboto-Regular-30" transform="translate(56.201172 0.565625)"/>
       <use xlink:href="#Roboto-Regular-30" transform="translate(113.326836 37.545313) scale(0.7)"/>
      </g>
     </g>
    </g>
    <g id="ytick_2">
     <g id="line2d_15">
      <g>
       <use xlink:href="#m9b9c253221" x="42.332115" y="189.308497" style="stroke: #000000; stroke-width: 0.8"/>
      </g>
     </g>
     <g id="text_5">
      <!-- $\mathdefault{10^{1}}$ -->
      <g transform="translate(18.172115 193.433497) scale(0.11 -0.11)">
       <use xlink:href="#Roboto-Regular-31" transform="translate(0 0.98125)"/>
       <use xlink:href="#Roboto-Regular-30" transform="translate(56.201172 0.98125)"/>
       <use xlink:href="#Roboto-Regular-31" transform="translate(113.326836 37.960938) scale(0.7)"/>
      </g>
     </g>
    </g>
    <g id="ytick_3">
     <g id="line2d_16">
      <defs>
       <path id="m6953eecdc0" d="M 0 0  L -2 0  " style="stroke: #000000; stroke-width: 0.6"/>
      </defs>
      <g>
       <use xlink:href="#m6953eecdc0" x="42.332115" y="12.248063" style="stroke: #000000; stroke-width: 0.6"/>
      </g>
     </g>
    </g>
    <g id="ytick_4">
     <g id="line2d_17">
      <g>
       <use xlink:href="#m6953eecdc0" x="42.332115" y="21.94945" style="stroke: #000000; stroke-width: 0.6"/>
      </g>
     </g>
    </g>
    <g id="ytick_5">
     <g id="line2d_18">
      <g>
       <use xlink:href="#m6953eecdc0" x="42.332115" y="30.353174" style="stroke: #000000; stroke-width: 0.6"/>
      </g>
     </g>
    </g>
    <g id="ytick_6">
     <g id="line2d_19">
      <g>
       <use xlink:href="#m6953eecdc0" x="42.332115" y="37.765783" style="stroke: #000000; stroke-width: 0.6"/>
      </g>
     </g>
    </g>
    <g id="ytick_7">
     <g id="line2d_20">
      <g>
       <use xlink:href="#m6953eecdc0" x="42.332115" y="88.01942" style="stroke: #000000; stroke-width: 0.6"/>
      </g>
     </g>
    </g>
    <g id="ytick_8">
     <g id="line2d_21">
      <g>
       <use xlink:href="#m6953eecdc0" x="42.332115" y="113.53714" style="stroke: #000000; stroke-width: 0.6"/>
      </g>
     </g>
    </g>
    <g id="ytick_9">
     <g id="line2d_22">
      <g>
       <use xlink:href="#m6953eecdc0" x="42.332115" y="131.642251" style="stroke: #000000; stroke-width: 0.6"/>
      </g>
     </g>
    </g>
    <g id="ytick_10">
     <g id="line2d_23">
      <g>
       <use xlink:href="#m6953eecdc0" x="42.332115" y="145.685666" style="stroke: #000000; stroke-width: 0.6"/>
      </g>
     </g>
    </g>
    <g id="ytick_11">
     <g id="line2d_24">
      <g>
       <use xlink:href="#m6953eecdc0" x="42.332115" y="157.159971" style="stroke: #000000; stroke-width: 0.6"/>
      </g>
     </g>
    </g>
    <g id="ytick_12">
     <g id="line2d_25">
      <g>
       <use xlink:href="#m6953eecdc0" x="42.332115" y="166.861359" style="stroke: #000000; stroke-width: 0.6"/>
      </g>
     </g>
    </g>
    <g id="ytick_13">
     <g id="line2d_26">
      <g>
       <use xlink:href="#m6953eecdc0" x="42.332115" y="175.265082" style="stroke: #000000; stroke-width: 0.6"/>
      </g>
     </g>
    </g>
    <g id="ytick_14">
     <g id="line2d_27">
      <g>
       <use xlink:href="#m6953eecdc0" x="42.332115" y="182.677692" style="stroke: #000000; stroke-width: 0.6"/>
      </g>
     </g>
    </g>
    <g id="ytick_15">
     <g id="line2d_28">
      <g>
       <use xlink:href="#m6953eecdc0" x="42.332115" y="232.931328" style="stroke: #000000; stroke-width: 0.6"/>
      </g>
     </g>
    </g>
    <g id="ytick_16">
     <g id="line2d_29">
      <g>
       <use xlink:href="#m6953eecdc0" x="42.332115" y="258.449049" style="stroke: #000000; stroke-width: 0.6"/>
      </g>
     </g>
    </g>
    <g id="text_6">
     <!-- Front position [cm] -->
     <g transform="translate(11.93774 177.33241) rotate(-90) scale(0.11 -0.11)">
      <defs>
       <path id="Roboto-Regular-46" d="M 528 0  L 528 4550  L 3347 4550  L 3347 4056  L 1131 4056  L 1131 2503  L 3038 2503  L 3038 2009  L 1131 2009  L 1131 0  L 528 0  z " transform="scale(0.015625)"/>
       <path id="Roboto-Regular-72" d="M 1791 2888  Q 1225 2888 1019 2400  L 1019 0  L 441 0  L 441 3381  L 1003 3381  L 1016 2994  Q 1294 3444 1819 3444  Q 1981 3444 2075 3400  L 2072 2863  Q 1944 2888 1791 2888  z " transform="scale(0.015625)"/>
       <path id="Roboto-Regular-6f" d="M 288 1725  Q 288 2459 700 2951  Q 1113 3444 1822 3444  Q 2531 3444 2943 2961  Q 3356 2478 3366 1756  L 3366 1653  Q 3366 919 2952 428  Q 2538 -63 1828 -63  Q 1116 -63 702 428  Q 288 919 288 1653  L 288 1725  z M 866 1653  Q 866 1150 1105 781  Q 1344 413 1828 413  Q 2300 413 2540 777  Q 2781 1141 2784 1644  L 2784 1725  Q 2784 2222 2543 2595  Q 2303 2969 1822 2969  Q 1344 2969 1105 2595  Q 866 2222 866 1725  L 866 1653  z " transform="scale(0.015625)"/>
       <path id="Roboto-Regular-6e" d="M 1844 2956  Q 1566 2956 1353 2806  Q 1141 2656 1019 2416  L 1019 0  L 441 0  L 441 3381  L 988 3381  L 1006 2959  Q 1391 3444 2016 3444  Q 2513 3444 2805 3166  Q 3097 2888 3100 2231  L 3100 0  L 2519 0  L 2519 2222  Q 2519 2619 2345 2787  Q 2172 2956 1844 2956  z " transform="scale(0.015625)"/>
       <path id="Roboto-Regular-74" d="M 1872 0  Q 1675 -63 1425 -63  Q 1103 -63 875 134  Q 647 331 647 841  L 647 2938  L 28 2938  L 28 3381  L 647 3381  L 647 4203  L 1225 4203  L 1225 3381  L 1856 3381  L 1856 2938  L 1225 2938  L 1225 838  Q 1225 578 1337 506  Q 1450 434 1597 434  Q 1706 434 1869 472  L 1872 0  z " transform="scale(0.015625)"/>
       <path id="Roboto-Regular-70" d="M 1984 -63  Q 1375 -63 1019 328  L 1019 -1300  L 438 -1300  L 438 3381  L 969 3381  L 997 3009  Q 1353 3444 1975 3444  Q 2616 3444 2956 2969  Q 3297 2494 3297 1719  L 3297 1653  Q 3297 913 2955 425  Q 2613 -63 1984 -63  z M 1806 2956  Q 1281 2956 1019 2491  L 1019 872  Q 1284 413 1813 413  Q 2281 413 2498 781  Q 2716 1150 2716 1653  L 2716 1719  Q 2716 2222 2498 2589  Q 2281 2956 1806 2956  z " transform="scale(0.015625)"/>
       <path id="Roboto-Regular-63" d="M 1794 413  Q 2103 413 2336 597  Q 2569 781 2591 1069  L 3141 1069  Q 3119 616 2725 276  Q 2331 -63 1794 -63  Q 1031 -63 661 440  Q 291 944 291 1625  L 291 1756  Q 291 2438 661 2941  Q 1031 3444 1794 3444  Q 2388 3444 2753 3092  Q 3119 2741 3141 2219  L 2591 2219  Q 2569 2531 2355 2750  Q 2141 2969 1794 2969  Q 1438 2969 1236 2787  Q 1034 2606 951 2328  Q 869 2050 869 1756  L 869 1625  Q 869 1328 950 1050  Q 1031 772 1232 592  Q 1434 413 1794 413  z " transform="scale(0.015625)"/>
      </defs>
      <use xlink:href="#Roboto-Regular-46"/>
      <use xlink:href="#Roboto-Regular-72" x="55.273438"/>
      <use xlink:href="#Roboto-Regular-6f" x="89.160156"/>
      <use xlink:href="#Roboto-Regular-6e" x="146.191406"/>
      <use xlink:href="#Roboto-Regular-74" x="201.416016"/>
      <use xlink:href="#Roboto-Regular-20" x="234.130859"/>
      <use xlink:href="#Roboto-Regular-70" x="258.935547"/>
      <use xlink:href="#Roboto-Regular-6f" x="315.087891"/>
      <use xlink:href="#Roboto-Regular-73" x="372.119141"/>
      <use xlink:href="#Roboto-Regular-69" x="423.730469"/>
      <use xlink:href="#Roboto-Regular-74" x="448.046875"/>
      <use xlink:href="#Roboto-Regular-69" x="480.761719"/>
      <use xlink:href="#Roboto-Regular-6f" x="505.078125"/>
      <use xlink:href="#Roboto-Regular-6e" x="562.109375"/>
      <use xlink:href="#Roboto-Regular-20" x="617.333984"/>
      <use xlink:href="#Roboto-Regular-5b" x="642.138672"/>
      <use xlink:href="#Roboto-Regular-63" x="668.652344"/>
      <use xlink:href="#Roboto-Regular-6d" x="720.996094"/>
      <use xlink:href="#Roboto-Regular-5d" x="808.691406"/>
     </g>
    </g>
   </g>
   <g id="line2d_30">
    <path d="M 141.031413 64.488317  L 158.645065 69.52576  L 158.645065 74.189704  L 173.537195 78.531732  L 173.537195 82.593428  L 186.437346 86.408805  L 197.816085 90.006038  L 197.816085 93.408728  L 207.994713 96.636843  L 207.994713 102.635136  L 217.202403 105.432683  L 217.202403 110.680258  L 225.608365 113.148592  L 225.608365 126.216259  L 233.341101 128.152856  L 233.341101 133.628869  L 240.500496 135.353208  L 240.500496 137.031559  L 247.165733 138.666312  L 247.165733 141.81369  L 253.400646 143.330256  L 253.400646 149.055514  L 259.257447 150.408995  L 259.257447 154.303089  L 264.779385 155.549356  L 264.779385 159.146589  L 270.002691 160.301382  L 270.002691 164.719648  L 274.958014 165.777395  L 274.958014 166.817657  L 279.671516 167.841004  L 279.671516 171.775688  L 284.165704 172.722088  L 284.165704 178.119775  L 288.460083 178.976039  L 288.460083 182.289143  L 292.571666 183.090867  L 292.571666 185.436521  L 296.515382 186.199372  L 296.515382 189.16154  L 300.304402 189.880798  L 300.304402 191.295115  L 303.950405 191.99053  L 303.950405 194.031826  L 307.463797 194.697806  L 307.463797 196.654474  L 310.853886 197.293408  L 310.853886 203.349466  L 314.129034 203.924213  L 314.129034 204.49376  L 320.363947 205.617619  L 320.363947 210.954242  L 323.336724 211.463835  L 323.336724 211.969335  L 326.220748 212.470808  L 326.220748 212.968316  L 329.021165 213.461922  L 329.021165 213.951686  L 331.742686 214.437669  L 331.742686 218.196066  L 334.389636 218.650468  L 334.389636 219.101613  L 336.965992 219.549547  L 336.965992 220.435962  L 339.475422 220.874531  L 339.475422 222.598871  L 341.921315 223.022673  L 341.921315 223.443641  L 344.30681 223.861811  L 341.921315 224.277222  L 341.921315 225.099906  L 339.475422 225.50725  L 341.921315 225.911975  L 341.921315 226.314113  L 344.30681 226.713698  L 344.30681 227.110762  L 348.908042 227.897453  L 348.908042 228.287141  L 351.129005 228.674431  L 351.129005 229.822204  L 348.908042 230.200189  L 348.908042 232.056797  L 351.129005 232.421636  L 351.129005 232.784371  L 348.908042 233.145028  L 348.908042 234.214761  L 353.300054 234.917946  L 353.300054 235.266615  L 355.423384 235.613362  L 355.423384 235.958209  L 357.501047 236.301177  L 355.423384 236.642286  L 357.501047 236.981556  L 357.501047 240.597583  L 359.534967 240.916239  L 359.534967 241.548752  L 361.526947 241.86264  L 361.526947 242.17497  L 363.478683 242.485758  L 363.478683 242.795019  L 365.391768 243.102767  L 365.391768 243.409018  L 367.267703 243.713786  L 367.267703 244.31893  L 370.913706 244.91831  L 370.913706 246.392252  L 365.391768 247.260327  L 365.391768 247.832462  L 367.267703 248.116591  L 367.267703 248.116591  " clip-path="url(#pa56db7da63)" style="fill: none; stroke: #fde725; stroke-width: 1.5; stroke-linecap: square"/>
   </g>
   <g id="line2d_31">
    <path d="M 274.958014 153.031643  L 279.671516 154.303089  L 279.671516 156.771423  L 288.460083 159.146589  L 288.460083 167.841004  L 292.571666 168.847976  L 292.571666 170.814838  L 296.515382 171.775688  L 296.515382 172.722088  L 300.304402 173.654467  L 300.304402 180.654391  L 307.463797 182.289143  L 307.463797 183.090867  L 310.853886 183.882505  L 310.853886 185.436521  L 307.463797 186.199372  L 307.463797 187.697882  L 310.853886 188.433966  L 310.853886 190.59193  L 314.129034 191.295115  L 314.129034 191.99053  L 317.296781 192.678345  L 317.296781 193.358724  L 320.363947 194.031826  L 320.363947 196.654474  L 317.296781 197.293408  L 317.296781 199.172188  L 320.363947 199.786187  L 320.363947 200.996502  L 326.220748 202.18398  L 326.220748 202.769421  L 329.021165 203.349466  L 329.021165 204.49376  L 331.742686 205.058198  L 331.742686 211.969335  L 334.389636 212.470808  L 334.389636 213.951686  L 341.921315 215.398519  L 341.921315 215.873498  L 344.30681 216.344919  L 344.30681 217.277299  L 341.921315 217.738359  L 341.921315 224.689908  L 344.30681 225.099906  L 344.30681 227.110762  L 346.634817 227.505337  L 346.634817 227.897453  L 348.908042 228.287141  L 348.908042 228.674431  L 353.300054 229.441934  L 353.300054 229.822204  L 355.423384 230.200189  L 355.423384 230.575918  L 357.501047 230.949418  L 355.423384 231.320713  L 355.423384 231.689831  L 353.300054 232.056797  L 353.300054 233.145028  L 355.423384 233.50363  L 355.423384 235.958209  L 353.300054 236.301177  L 355.423384 236.642286  L 355.423384 237.319006  L 357.501047 237.654658  L 357.501047 237.988528  L 361.526947 238.651002  L 361.526947 239.306575  L 363.478683 239.631818  L 363.478683 241.23329  L 365.391768 241.548752  L 365.391768 242.17497  L 367.267703 242.485758  L 367.267703 242.795019  L 363.478683 243.409018  L 363.478683 244.31893  L 365.391768 244.619333  L 365.391768 244.91831  L 367.267703 245.215873  L 367.267703 246.682943  L 365.391768 246.972297  L 365.391768 247.260327  L 363.478683 247.547045  L 363.478683 247.832462  L 363.478683 247.832462  " clip-path="url(#pa56db7da63)" style="fill: none; stroke: #b5de2b; stroke-width: 1.5; stroke-linecap: square"/>
   </g>
   <g id="line2d_32">
    <path d="M 186.437346 53.014012  L 186.437346 59.012305  L 197.816085 64.488317  L 217.202403 74.189704  L 217.202403 82.593428  L 225.608365 86.408805  L 225.608365 93.408728  L 233.341101 96.636843  L 233.341101 99.707425  L 240.500496 102.635136  L 240.500496 108.111148  L 247.165733 110.680258  L 247.165733 113.148592  L 253.400646 115.523758  L 253.400646 122.154563  L 259.257447 124.218173  L 259.257447 126.216259  L 264.779385 128.152856  L 264.779385 137.031559  L 270.002691 138.666312  L 270.002691 141.81369  L 274.958014 143.330256  L 274.958014 147.672284  L 279.671516 149.055514  L 279.671516 153.031643  L 284.165704 154.303089  L 284.165704 161.435367  L 288.460083 162.54928  L 288.460083 164.719648  L 292.571666 165.777395  L 292.571666 170.814838  L 296.515382 171.775688  L 296.515382 173.654467  L 300.304402 174.573235  L 300.304402 175.478782  L 303.950405 176.371484  L 303.950405 177.2517  L 307.463797 178.119775  L 307.463797 183.090867  L 310.853886 183.882505  L 310.853886 185.436521  L 317.296781 186.953087  L 317.296781 191.295115  L 320.363947 191.99053  L 320.363947 197.293408  L 323.336724 197.92592  L 323.336724 198.552139  L 329.021165 199.786187  L 329.021165 200.394254  L 331.742686 200.996502  L 331.742686 202.769421  L 329.021165 203.349466  L 329.021165 205.058198  L 331.742686 205.617619  L 331.742686 206.172111  L 334.389636 206.72176  L 334.389636 207.266651  L 336.965992 207.806864  L 336.965992 209.922506  L 334.389636 210.440488  L 334.389636 211.969335  L 339.475422 212.968316  L 339.475422 213.461922  L 341.921315 213.951686  L 341.921315 214.437669  L 344.30681 214.919928  L 341.921315 215.398519  L 341.921315 215.873498  L 339.475422 216.344919  L 339.475422 216.812836  L 341.921315 217.277299  L 341.921315 217.738359  L 344.30681 218.196066  L 344.30681 218.650468  L 346.634817 219.101613  L 346.634817 219.549547  L 348.908042 219.994315  L 348.908042 221.310066  L 351.129005 221.742606  L 351.129005 226.314113  L 353.300054 226.713698  L 353.300054 227.110762  L 355.423384 227.505337  L 355.423384 228.674431  L 357.501047 229.059352  L 357.501047 230.200189  L 359.534967 230.575918  L 359.534967 230.949418  L 361.526947 231.320713  L 361.526947 231.689831  L 363.478683 232.056797  L 363.478683 234.214761  L 365.391768 234.567336  L 365.391768 235.266615  L 367.267703 235.613362  L 367.267703 240.916239  L 365.391768 241.23329  L 365.391768 241.86264  L 363.478683 242.17497  L 363.478683 242.485758  L 361.526947 242.795019  L 361.526947 243.713786  L 363.478683 244.017085  L 363.478683 244.31893  L 367.267703 244.91831  L 370.913706 245.215873  L 370.913706 246.100212  L 369.107904 246.392252  L 369.107904 247.260327  L 370.913706 247.547045  L 370.913706 247.547045  " clip-path="url(#pa56db7da63)" style="fill: none; stroke: #6ece58; stroke-width: 1.5; stroke-linecap: square"/>
   </g>
   <g id="line2d_33">
    <path d="M 158.645065 53.014012  L 173.537195 59.012305  L 173.537195 64.488317  L 186.437346 69.52576  L 186.437346 78.531732  L 197.816085 82.593428  L 197.816085 86.408805  L 207.994713 90.006038  L 207.994713 93.408728  L 217.202403 96.636843  L 217.202403 102.635136  L 225.608365 105.432683  L 225.608365 110.680258  L 233.341101 113.148592  L 233.341101 120.020988  L 240.500496 122.154563  L 240.500496 126.216259  L 247.165733 128.152856  L 247.165733 130.031636  L 253.400646 131.855951  L 253.400646 133.628869  L 259.257447 135.353208  L 259.257447 137.031559  L 264.779385 138.666312  L 264.779385 147.672284  L 270.002691 149.055514  L 270.002691 151.73398  L 274.958014 153.031643  L 274.958014 155.549356  L 279.671516 156.771423  L 279.671516 163.643819  L 284.165704 164.719648  L 284.165704 166.817657  L 288.460083 167.841004  L 288.460083 169.839091  L 292.571666 170.814838  L 292.571666 172.722088  L 296.515382 173.654467  L 296.515382 176.371484  L 300.304402 177.2517  L 300.304402 185.436521  L 303.950405 186.199372  L 303.950405 187.697882  L 307.463797 188.433966  L 307.463797 195.356811  L 310.853886 196.008987  L 310.853886 196.654474  L 314.129034 197.293408  L 314.129034 199.172188  L 317.296781 199.786187  L 317.296781 203.924213  L 320.363947 204.49376  L 320.363947 207.266651  L 323.336724 207.806864  L 323.336724 208.873575  L 326.220748 209.400226  L 326.220748 211.969335  L 329.021165 212.470808  L 329.021165 213.951686  L 331.742686 214.437669  L 331.742686 216.812836  L 334.389636 217.277299  L 334.389636 217.738359  L 336.965992 218.196066  L 336.965992 218.650468  L 339.475422 219.101613  L 339.475422 220.435962  L 336.965992 220.874531  L 336.965992 221.310066  L 334.389636 221.742606  L 334.389636 222.598871  L 336.965992 223.022673  L 336.965992 223.861811  L 341.921315 224.689908  L 341.921315 225.50725  L 344.30681 225.911975  L 344.30681 228.674431  L 346.634817 229.059352  L 346.634817 229.822204  L 351.129005 230.575918  L 351.129005 235.958209  L 353.300054 236.301177  L 353.300054 236.981556  L 355.423384 237.319006  L 355.423384 238.651002  L 351.129005 239.306575  L 351.129005 240.277306  L 353.300054 240.597583  L 357.501047 240.916239  L 363.478683 241.86264  L 363.478683 243.102767  L 361.526947 243.409018  L 361.526947 244.619333  L 363.478683 244.91831  L 363.478683 245.512036  L 355.423384 246.682943  L 355.423384 247.547045  L 355.423384 247.547045  " clip-path="url(#pa56db7da63)" style="fill: none; stroke: #35b779; stroke-width: 1.5; stroke-linecap: square"/>
   </g>
   <g id="line2d_34">
    <path d="M 173.537195 53.014012  L 173.537195 59.012305  L 186.437346 64.488317  L 197.816085 69.52576  L 197.816085 74.189704  L 207.994713 78.531732  L 207.994713 82.593428  L 217.202403 86.408805  L 217.202403 96.636843  L 225.608365 99.707425  L 225.608365 105.432683  L 233.341101 108.111148  L 233.341101 113.148592  L 240.500496 115.523758  L 240.500496 120.020988  L 247.165733 122.154563  L 247.165733 126.216259  L 253.400646 128.152856  L 253.400646 130.031636  L 259.257447 131.855951  L 259.257447 135.353208  L 264.779385 137.031559  L 264.779385 151.73398  L 270.002691 153.031643  L 270.002691 156.771423  L 274.958014 157.97021  L 274.958014 161.435367  L 279.671516 162.54928  L 279.671516 163.643819  L 284.165704 164.719648  L 284.165704 166.817657  L 288.460083 167.841004  L 288.460083 171.775688  L 292.571666 172.722088  L 292.571666 174.573235  L 296.515382 175.478782  L 296.515382 183.090867  L 300.304402 183.882505  L 300.304402 185.436521  L 307.463797 186.953087  L 307.463797 188.433966  L 310.853886 189.16154  L 310.853886 192.678345  L 314.129034 193.358724  L 314.129034 194.697806  L 317.296781 195.356811  L 314.129034 196.008987  L 314.129034 199.172188  L 317.296781 199.786187  L 317.296781 200.394254  L 320.363947 200.996502  L 320.363947 201.593042  L 323.336724 202.18398  L 323.336724 204.49376  L 326.220748 205.058198  L 326.220748 206.172111  L 329.021165 206.72176  L 329.021165 207.266651  L 331.742686 207.806864  L 331.742686 211.969335  L 334.389636 212.470808  L 334.389636 212.968316  L 336.965992 213.461922  L 336.965992 214.437669  L 339.475422 214.919928  L 339.475422 215.873498  L 341.921315 216.344919  L 341.921315 218.196066  L 336.965992 219.101613  L 336.965992 220.435962  L 341.921315 221.310066  L 341.921315 221.742606  L 344.30681 222.172195  L 344.30681 223.022673  L 348.908042 223.861811  L 348.908042 224.689908  L 346.634817 225.099906  L 346.634817 225.50725  L 344.30681 225.911975  L 344.30681 226.713698  L 346.634817 227.110762  L 346.634817 227.505337  L 348.908042 227.897453  L 348.908042 229.822204  L 351.129005 230.200189  L 351.129005 230.575918  L 353.300054 230.949418  L 353.300054 231.689831  L 355.423384 232.056797  L 355.423384 232.784371  L 353.300054 233.145028  L 353.300054 234.214761  L 355.423384 234.567336  L 355.423384 234.917946  L 357.501047 235.266615  L 357.501047 236.301177  L 353.300054 236.981556  L 353.300054 237.988528  L 359.534967 238.979642  L 359.534967 239.631818  L 361.526947 239.95539  L 361.526947 241.86264  L 363.478683 242.17497  L 363.478683 242.485758  L 365.391768 242.795019  L 363.478683 243.102767  L 363.478683 243.409018  L 361.526947 243.713786  L 361.526947 246.392252  L 359.534967 246.682943  L 359.534967 247.260327  L 363.478683 247.832462  L 363.478683 247.832462  " clip-path="url(#pa56db7da63)" style="fill: none; stroke: #1f9e89; stroke-width: 1.5; stroke-linecap: square"/>
   </g>
   <g id="line2d_35">
    <path d="M 141.031413 59.012305  L 141.031413 64.488317  L 158.645065 69.52576  L 158.645065 74.189704  L 173.537195 78.531732  L 173.537195 82.593428  L 186.437346 86.408805  L 186.437346 90.006038  L 197.816085 93.408728  L 207.994713 96.636843  L 207.994713 113.148592  L 217.202403 115.523758  L 217.202403 122.154563  L 225.608365 124.218173  L 225.608365 128.152856  L 233.341101 130.031636  L 233.341101 133.628869  L 240.500496 135.353208  L 240.500496 137.031559  L 247.165733 138.666312  L 247.165733 140.259674  L 253.400646 141.81369  L 253.400646 144.811135  L 259.257447 146.257967  L 259.257447 153.031643  L 264.779385 154.303089  L 264.779385 157.97021  L 270.002691 159.146589  L 270.002691 163.643819  L 274.958014 164.719648  L 274.958014 169.839091  M 303.950405 192.678345  L 303.950405 194.031826  L 307.463797 194.697806  L 307.463797 196.654474  L 310.853886 197.293408  L 310.853886 200.394254  L 314.129034 200.996502  L 314.129034 202.18398  L 317.296781 202.769421  L 317.296781 208.342479  L 320.363947 208.873575  L 320.363947 209.400226  L 323.336724 209.922506  L 323.336724 210.440488  L 326.220748 210.954242  L 326.220748 211.463835  L 329.021165 211.969335  L 329.021165 214.437669  L 331.742686 214.919928  L 331.742686 216.344919  L 334.389636 216.812836  L 334.389636 218.650468  L 336.965992 219.101613  L 336.965992 221.742606  L 339.475422 222.172195  L 339.475422 225.911975  L 341.921315 226.314113  L 341.921315 226.713698  L 344.30681 227.110762  L 344.30681 230.575918  L 346.634817 230.949418  L 346.634817 232.056797  L 348.908042 232.421636  L 348.908042 233.145028  L 351.129005 233.50363  L 351.129005 238.320637  L 353.300054 238.651002  L 353.300054 238.979642  L 355.423384 239.306575  L 355.423384 241.548752  L 353.300054 241.86264  L 353.300054 242.485758  L 355.423384 242.795019  L 355.423384 243.713786  L 357.501047 244.017085  L 357.501047 244.619333  L 359.534967 244.91831  L 359.534967 246.100212  L 363.478683 246.682943  L 361.526947 246.972297  L 361.526947 248.116591  L 361.526947 248.116591  " clip-path="url(#pa56db7da63)" style="fill: none; stroke: #26828e; stroke-width: 1.5; stroke-linecap: square"/>
   </g>
   <g id="line2d_36">
    <path d="M 247.165733 130.031636  L 247.165733 133.628869  L 253.400646 135.353208  L 253.400646 137.031559  L 259.257447 138.666312  L 259.257447 143.330256  L 264.779385 144.811135  L 264.779385 150.408995  L 270.002691 151.73398  L 270.002691 155.549356  L 274.958014 156.771423  L 274.958014 162.54928  L 279.671516 163.643819  L 279.671516 165.777395  L 284.165704 166.817657  L 284.165704 169.839091  L 288.460083 170.814838  L 288.460083 172.722088  L 292.571666 173.654467  L 292.571666 177.2517  L 296.515382 178.119775  L 296.515382 179.82081  L 300.304402 180.654391  L 300.304402 185.436521  L 303.950405 186.199372  L 303.950405 192.678345  L 307.463797 193.358724  L 307.463797 194.031826  L 310.853886 194.697806  L 310.853886 199.172188  L 314.129034 199.786187  L 314.129034 200.394254  L 317.296781 200.996502  L 317.296781 202.18398  L 320.363947 202.769421  L 320.363947 205.058198  L 326.220748 206.172111  L 326.220748 206.72176  L 329.021165 207.266651  L 329.021165 211.969335  L 331.742686 212.470808  L 331.742686 213.461922  L 334.389636 213.951686  L 334.389636 214.437669  L 336.965992 214.919928  L 336.965992 215.398519  L 339.475422 215.873498  L 339.475422 216.344919  L 341.921315 216.812836  L 341.921315 221.742606  L 344.30681 222.172195  L 344.30681 223.443641  L 346.634817 223.861811  L 346.634817 227.505337  L 348.908042 227.897453  L 348.908042 228.674431  L 351.129005 229.059352  L 351.129005 230.949418  L 353.300054 231.320713  L 353.300054 232.421636  L 355.423384 232.784371  L 355.423384 233.50363  L 357.501047 233.8602  L 357.501047 234.567336  L 355.423384 234.917946  L 355.423384 236.642286  L 357.501047 236.981556  L 357.501047 239.631818  L 361.526947 240.277306  L 361.526947 240.916239  L 363.478683 241.23329  L 363.478683 241.548752  L 365.391768 241.86264  L 365.391768 244.31893  L 367.267703 244.619333  L 367.267703 245.806811  L 365.391768 246.100212  L 365.391768 246.100212  " clip-path="url(#pa56db7da63)" style="fill: none; stroke: #31688e; stroke-width: 1.5; stroke-linecap: square"/>
   </g>
   <g id="line2d_37">
    <path d="M 141.031413 53.014012  L 141.031413 69.52576  L 158.645065 74.189704  L 158.645065 82.593428  L 173.537195 86.408805  L 173.537195 93.408728  L 186.437346 96.636843  L 186.437346 102.635136  L 197.816085 105.432683  L 197.816085 115.523758  L 207.994713 117.812536  L 207.994713 122.154563  L 217.202403 124.218173  L 217.202403 126.216259  L 225.608365 128.152856  L 225.608365 130.031636  L 233.341101 131.855951  L 233.341101 137.031559  L 240.500496 138.666312  L 240.500496 143.330256  L 247.165733 144.811135  L 247.165733 146.257967  L 253.400646 147.672284  L 253.400646 151.73398  L 259.257447 153.031643  L 259.257447 157.97021  L 264.779385 159.146589  L 264.779385 160.301382  L 270.002691 161.435367  L 270.002691 166.817657  L 274.958014 167.841004  L 274.958014 168.847976  L 279.671516 169.839091  L 279.671516 173.654467  L 284.165704 174.573235  L 284.165704 175.478782  L 288.460083 176.371484  L 288.460083 178.119775  L 292.571666 178.976039  L 292.571666 183.090867  L 288.460083 183.882505  L 288.460083 186.953087  L 292.571666 187.697882  L 292.571666 188.433966  L 296.515382 189.16154  L 296.515382 190.59193  L 300.304402 191.295115  L 300.304402 197.293408  L 303.950405 197.92592  L 303.950405 199.172188  L 307.463797 199.786187  L 307.463797 200.394254  L 310.853886 200.996502  L 310.853886 202.18398  L 314.129034 202.769421  L 314.129034 203.924213  L 317.296781 204.49376  L 317.296781 205.058198  L 320.363947 205.617619  L 320.363947 210.440488  L 323.336724 210.954242  L 323.336724 211.969335  L 326.220748 212.470808  L 326.220748 213.951686  L 323.336724 214.437669  L 323.336724 215.873498  L 331.742686 217.277299  L 331.742686 218.196066  L 329.021165 218.650468  L 329.021165 221.742606  L 331.742686 222.172195  L 331.742686 223.022673  L 334.389636 223.443641  L 334.389636 225.50725  L 336.965992 225.911975  L 336.965992 226.314113  L 339.475422 226.713698  L 339.475422 229.822204  L 341.921315 230.200189  L 341.921315 234.214761  L 344.30681 234.567336  L 344.30681 234.917946  L 346.634817 235.266615  L 351.129005 235.613362  L 351.129005 236.301177  L 346.634817 236.981556  L 346.634817 237.654658  L 351.129005 238.320637  L 351.129005 239.631818  L 348.908042 239.95539  L 348.908042 240.277306  L 351.129005 240.597583  L 351.129005 240.916239  L 355.423384 241.23329  L 355.423384 241.548752  L 357.501047 241.86264  L 357.501047 243.713786  L 353.300054 244.31893  L 353.300054 244.91831  L 359.534967 245.806811  L 359.534967 246.100212  L 351.129005 247.260327  L 351.129005 247.832462  L 351.129005 247.832462  " clip-path="url(#pa56db7da63)" style="fill: none; stroke: #3e4989; stroke-width: 1.5; stroke-linecap: square"/>
   </g>
   <g id="line2d_38">
    <path d="M 207.994713 102.635136  L 217.202403 105.432683  L 217.202403 110.680258  L 225.608365 113.148592  L 225.608365 120.020988  L 233.341101 122.154563  L 233.341101 133.628869  L 247.165733 137.031559  L 247.165733 138.666312  L 253.400646 140.259674  L 253.400646 141.81369  L 259.257447 143.330256  L 259.257447 151.73398  L 264.779385 153.031643  L 264.779385 156.771423  L 270.002691 157.97021  L 270.002691 160.301382  L 274.958014 161.435367  L 274.958014 167.841004  L 279.671516 168.847976  L 279.671516 171.775688  L 284.165704 172.722088  L 284.165704 174.573235  L 288.460083 175.478782  L 288.460083 178.119775  L 292.571666 178.976039  L 288.460083 179.82081  L 288.460083 181.477075  L 292.571666 182.289143  L 292.571666 183.882505  L 296.515382 184.66431  L 296.515382 186.199372  L 303.950405 187.697882  L 303.950405 190.59193  L 307.463797 191.295115  L 307.463797 193.358724  L 303.950405 194.031826  L 303.950405 196.654474  L 307.463797 197.293408  L 307.463797 197.92592  L 310.853886 198.552139  L 310.853886 200.394254  L 314.129034 200.996502  L 314.129034 201.593042  L 320.363947 202.769421  L 320.363947 207.806864  L 323.336724 208.342479  L 323.336724 212.968316  L 329.021165 213.951686  L 329.021165 214.437669  L 331.742686 214.919928  L 331.742686 216.812836  L 334.389636 217.277299  L 334.389636 217.738359  L 336.965992 218.196066  L 336.965992 219.101613  L 339.475422 219.549547  L 339.475422 219.994315  L 341.921315 220.435962  L 341.921315 221.742606  L 344.30681 222.172195  L 344.30681 223.443641  L 341.921315 223.861811  L 341.921315 225.50725  L 339.475422 225.911975  L 339.475422 226.314113  L 341.921315 226.713698  L 341.921315 227.110762  L 348.908042 228.287141  L 348.908042 229.441934  L 351.129005 229.822204  L 351.129005 230.200189  L 353.300054 230.575918  L 353.300054 233.50363  L 348.908042 234.214761  L 348.908042 234.917946  L 351.129005 235.266615  L 351.129005 235.613362  L 361.526947 237.319006  L 361.526947 238.979642  L 357.501047 239.631818  L 357.501047 242.17497  L 355.423384 242.485758  L 355.423384 244.91831  L 353.300054 245.215873  L 348.908042 245.512036  L 346.634817 245.806811  L 346.634817 246.392252  L 353.300054 246.682943  L 355.423384 246.972297  L 359.534967 247.260327  L 365.391768 247.547045  L 365.391768 247.547045  " clip-path="url(#pa56db7da63)" style="fill: none; stroke: #482878; stroke-width: 1.5; stroke-linecap: square"/>
   </g>
   <g id="line2d_39">
    <path d="M 0 0  " clip-path="url(#pa56db7da63)" style="fill: none; stroke: #440154; stroke-width: 1.5; stroke-linecap: square"/>
   </g>
   <g id="line2d_40">
    <path d="M 119.244925 14.672447  L 121.716561 17.009928  L 124.188198 19.347409  L 126.659834 21.68489  L 129.13147 24.022371  L 131.603107 26.359852  L 134.074743 28.697333  L 136.546379 31.034814  L 139.018016 33.372295  L 141.489652 35.709776  L 143.961288 38.047257  L 146.432925 40.384738  L 148.904561 42.722219  L 151.376197 45.0597  L 153.847834 47.397181  L 156.31947 49.734662  L 158.791106 52.072143  L 161.262743 54.409624  L 163.734379 56.747105  L 166.206015 59.084586  L 168.677652 61.422067  L 171.149288 63.759548  L 173.620924 66.097029  L 176.092561 68.43451  L 178.564197 70.771991  L 181.035833 73.109472  L 183.50747 75.446953  L 185.979106 77.784434  L 188.450742 80.121915  L 190.922379 82.459396  L 193.394015 84.796877  L 195.865651 87.134358  L 198.337288 89.471839  L 200.808924 91.80932  L 203.28056 94.146801  L 205.752197 96.484282  L 208.223833 98.821763  L 210.695469 101.159244  L 213.167106 103.496725  L 215.638742 105.834206  L 218.110378 108.171687  L 220.582015 110.509168  L 223.053651 112.846649  L 225.525287 115.18413  L 227.996924 117.521611  L 230.46856 119.859092  L 232.940197 122.196573  L 235.411833 124.534054  L 237.883469 126.871535  L 240.355106 129.209016  L 242.826742 131.546497  L 245.298378 133.883978  L 247.770015 136.221459  L 250.241651 138.55894  L 252.713287 140.896421  L 255.184924 143.233902  L 257.65656 145.571383  L 260.128196 147.908864  L 262.599833 150.246345  L 265.071469 152.583826  L 267.543105 154.921307  L 270.014742 157.258788  L 272.486378 159.596269  L 274.958014 161.93375  L 277.429651 164.271231  L 279.901287 166.608712  L 282.372923 168.946193  L 284.84456 171.283674  L 287.316196 173.621155  L 289.787832 175.958636  L 292.259469 178.296117  L 294.731105 180.633598  L 297.202741 182.971079  L 299.674378 185.30856  L 302.146014 187.646041  L 304.61765 189.983522  L 307.089287 192.321003  L 309.560923 194.658484  L 312.032559 196.995965  L 314.504196 199.333446  L 316.975832 201.670927  L 319.447468 204.008408  L 321.919105 206.345889  L 324.390741 208.68337  L 326.862377 211.020851  L 329.334014 213.358332  L 331.80565 215.695813  L 334.277286 218.033294  L 336.748923 220.370775  L 339.220559 222.708256  L 341.692195 225.045737  L 344.163832 227.383218  L 346.635468 229.720699  L 349.107104 232.05818  L 351.578741 234.395661  L 354.050377 236.733142  L 356.522013 239.070623  L 358.99365 241.408104  L 361.465286 243.745585  L 363.936922 246.083066  " clip-path="url(#pa56db7da63)" style="fill: none; stroke: #ff7f0e; stroke-width: 1.5; stroke-linecap: square"/>
   </g>
   <g id="patch_3">
    <path d="M 42.332115 259.788798  L 42.332115 3.00024  " style="fill: none; stroke: #000000; stroke-width: 0.8; stroke-linejoin: miter; stroke-linecap: square"/>
   </g>
   <g id="patch_4">
    <path d="M 390.182019 259.788798  L 390.182019 3.00024  " style="fill: none; stroke: #000000; stroke-width: 0.8; stroke-linejoin: miter; stroke-linecap: square"/>
   </g>
   <g id="patch_5">
    <path d="M 42.332115 259.788798  L 390.182019 259.788798  " style="fill: none; stroke: #000000; stroke-width: 0.8; stroke-linejoin: miter; stroke-linecap: square"/>
   </g>
   <g id="patch_6">
    <path d="M 42.332115 3.00024  L 390.182019 3.00024  " style="fill: none; stroke: #000000; stroke-width: 0.8; stroke-linejoin: miter; stroke-linecap: square"/>
   </g>
   <g id="legend_1">
    <g id="patch_7">
     <path d="M 297.672019 27.784615  L 382.482019 27.784615  Q 384.682019 27.784615 384.682019 25.584615  L 384.682019 10.70024  Q 384.682019 8.50024 382.482019 8.50024  L 297.672019 8.50024  Q 295.472019 8.50024 295.472019 10.70024  L 295.472019 25.584615  Q 295.472019 27.784615 297.672019 27.784615  z " style="fill: #ffffff; opacity: 0.8; stroke: #cccccc; stroke-linejoin: miter"/>
    </g>
    <g id="line2d_41">
     <path d="M 299.872019 17.30024  L 310.872019 17.30024  L 321.872019 17.30024  " style="fill: none; stroke: #ff7f0e; stroke-width: 1.5; stroke-linecap: square"/>
    </g>
    <g id="text_7">
     <!-- $d = 0.01 t^{1.5}$ -->
     <g transform="translate(330.672019 21.15024) scale(0.11 -0.11)">
      <defs>
       <path id="STIXGeneral-Italic-64" d="M 3334 4371  L 3373 4333  L 3123 3360  L 2739 1958  Q 2323 429 2323 384  Q 2323 256 2438 256  Q 2522 256 2614 336  Q 2707 416 2963 710  L 3040 646  Q 2547 -83 2099 -83  Q 1978 -83 1907 -6  Q 1837 70 1837 205  Q 1837 397 1920 774  Q 1645 307 1379 118  Q 1114 -70 781 -70  Q 461 -70 278 125  Q 96 320 96 678  Q 96 1440 713 2131  Q 1331 2822 1965 2822  Q 2163 2822 2256 2732  Q 2349 2643 2381 2451  L 2387 2451  L 2675 3494  Q 2765 3808 2765 3949  Q 2765 4051 2694 4076  Q 2624 4102 2355 4115  L 2355 4224  Q 2848 4269 3334 4371  z M 2278 2310  Q 2278 2477 2185 2576  Q 2093 2675 1978 2675  Q 1677 2675 1395 2381  Q 1075 2042 864 1571  Q 653 1101 653 704  Q 653 486 752 361  Q 851 237 1024 237  Q 1312 237 1606 550  Q 1901 864 2089 1350  Q 2278 1837 2278 2310  z " transform="scale(0.015625)"/>
       <path id="STIXGeneral-Regular-3d" d="M 4077 2048  L 307 2048  L 307 2470  L 4077 2470  L 4077 2048  z M 4077 768  L 307 768  L 307 1190  L 4077 1190  L 4077 768  z " transform="scale(0.015625)"/>
       <path id="STIXGeneral-Regular-30" d="M 3046 2112  Q 3046 1683 2963 1302  Q 2880 922 2717 602  Q 2554 282 2266 96  Q 1978 -90 1600 -90  Q 1210 -90 915 108  Q 621 307 461 640  Q 301 973 227 1350  Q 154 1728 154 2150  Q 154 2746 301 3222  Q 448 3699 790 4012  Q 1133 4326 1626 4326  Q 2253 4326 2649 3712  Q 3046 3098 3046 2112  z M 2432 2080  Q 2432 3091 2217 3625  Q 2003 4160 1587 4160  Q 1190 4160 979 3622  Q 768 3085 768 2106  Q 768 1120 979 598  Q 1190 77 1600 77  Q 2003 77 2217 598  Q 2432 1120 2432 2080  z " transform="scale(0.015625)"/>
       <path id="STIXGeneral-Regular-2e" d="M 1158 275  Q 1158 134 1052 32  Q 947 -70 800 -70  Q 653 -70 550 32  Q 448 134 448 281  Q 448 429 553 534  Q 659 640 806 640  Q 947 640 1052 531  Q 1158 422 1158 275  z " transform="scale(0.015625)"/>
       <path id="STIXGeneral-Regular-31" d="M 2522 0  L 755 0  L 755 96  Q 1107 115 1235 227  Q 1363 339 1363 608  L 1363 3482  Q 1363 3795 1171 3795  Q 1082 3795 883 3718  L 710 3654  L 710 3744  L 1856 4326  L 1914 4307  L 1914 486  Q 1914 275 2042 185  Q 2170 96 2522 96  L 2522 0  z " transform="scale(0.015625)"/>
       <path id="STIXGeneral-Italic-74" d="M 1894 2739  L 1862 2534  L 1325 2534  L 768 435  Q 755 384 755 346  Q 755 243 851 243  Q 928 243 1030 342  Q 1133 442 1370 749  L 1453 704  Q 1158 256 969 93  Q 781 -70 538 -70  Q 243 -70 243 166  Q 243 230 346 640  L 845 2534  L 365 2534  L 358 2573  Q 358 2688 570 2733  Q 730 2771 992 2979  Q 1254 3187 1421 3437  Q 1459 3494 1510 3494  Q 1568 3494 1568 3443  Q 1568 3411 1562 3398  L 1382 2739  L 1894 2739  z " transform="scale(0.015625)"/>
       <path id="STIXGeneral-Regular-35" d="M 2803 4358  L 2573 3814  Q 2534 3731 2400 3731  L 1158 3731  L 902 3187  Q 1606 3053 1920 2896  Q 2234 2739 2502 2368  Q 2726 2061 2726 1555  Q 2726 1094 2576 780  Q 2426 467 2099 224  Q 1664 -90 1011 -90  Q 646 -90 422 19  Q 198 128 198 307  Q 198 550 486 550  Q 717 550 960 352  Q 1210 147 1414 147  Q 1747 147 2012 480  Q 2278 813 2278 1229  Q 2278 1843 1850 2189  Q 1293 2637 486 2637  Q 410 2637 410 2688  L 416 2720  L 1114 4237  L 2438 4237  Q 2547 4237 2608 4269  Q 2669 4301 2746 4403  L 2803 4358  z " transform="scale(0.015625)"/>
      </defs>
      <use xlink:href="#STIXGeneral-Italic-64" transform="translate(0 0.567188)"/>
      <use xlink:href="#STIXGeneral-Regular-3d" transform="translate(64.439981 0.567188)"/>
      <use xlink:href="#STIXGeneral-Regular-30" transform="translate(147.379962 0.567188)"/>
      <use xlink:href="#STIXGeneral-Regular-2e" transform="translate(197.379947 0.567188)"/>
      <use xlink:href="#STIXGeneral-Regular-30" transform="translate(222.379932 0.567188)"/>
      <use xlink:href="#STIXGeneral-Regular-31" transform="translate(272.379916 0.567188)"/>
      <use xlink:href="#STIXGeneral-Italic-74" transform="translate(322.379901 0.567188)"/>
      <use xlink:href="#STIXGeneral-Regular-31" transform="translate(358.558014 35.842188) scale(0.7)"/>
      <use xlink:href="#STIXGeneral-Regular-2e" transform="translate(393.558003 35.842188) scale(0.7)"/>
      <use xlink:href="#STIXGeneral-Regular-35" transform="translate(411.057993 35.842188) scale(0.7)"/>
     </g>
    </g>
   </g>
  </g>
 </g>
 <defs>
  <clipPath id="pa56db7da63">
   <rect x="42.332115" y="3.00024" width="347.849904" height="256.788558"/>
  </clipPath>
 </defs>
</svg>
